<svg id="Layer_1" data-name="Layer 1" xmlns="http://www.w3.org/2000/svg" viewBox="0 0 67.57 79.77"><path d="M264.46,383.71h0a2.83,2.83,0,0,0,2.83-2.83A2.83,2.83,0,0,1,264.46,383.71Z" transform="translate(-243.36 -321.01)" style="fill:#0077b6"/><path d="M295.71,377.68H278.23a3.68,3.68,0,0,1,0-7.36h17.48a3.68,3.68,0,0,1,0,7.36Zm0-11H278.23a3.68,3.68,0,0,1,0-7.36h17.48a3.68,3.68,0,0,1,0,7.36Zm-24-18.38h24a3.68,3.68,0,0,1,0,7.36h-24a3.68,3.68,0,1,1,0-7.36Z" transform="translate(-243.36 -321.01)" style="fill:#0077b6"/><path d="M246.19,383.71a2.85,2.85,0,0,1-2-.83,2.85,2.85,0,0,0,2,.83h0Z" transform="translate(-243.36 -321.01)" style="fill:#0077b6"/><path d="M303.58,327.52h-8.94v-2.83a3.68,3.68,0,0,0-7.36,0v2.82h-11v-2.82a3.68,3.68,0,0,0-7.36,0v2.82H259.8a7.35,7.35,0,0,0-7.35,7.35v7.54a10,10,0,0,1,2.81-.42,9.9,9.9,0,0,1,4.54,1.12v-8.23h9.09v2.69a3.68,3.68,0,0,0,7.36,0v-2.69h11v2.69a3.68,3.68,0,0,0,7.36,0v-2.69h8.94v51.92H266.67v7.35h36.9a7.34,7.34,0,0,0,7.35-7.35V334.87A7.33,7.33,0,0,0,303.58,327.52Z" transform="translate(-243.36 -321.01)" style="fill:#0077b6"/><path d="M295.71,370.33H278.23a3.68,3.68,0,0,0,0,7.36h17.48a3.68,3.68,0,0,0,0-7.36Z" transform="translate(-243.36 -321.01)" style="fill:#0077b6"/><path d="M295.71,359.31H278.23a3.68,3.68,0,0,0,0,7.36h17.48a3.68,3.68,0,0,0,0-7.36Z" transform="translate(-243.36 -321.01)" style="fill:#0077b6"/><path d="M271.73,355.63h24a3.68,3.68,0,0,0,0-7.36h-24a3.68,3.68,0,1,0,0,7.36Z" transform="translate(-243.36 -321.01)" style="fill:#0077b6"/><path d="M252.47,361.91h-6.28a2.85,2.85,0,0,0-2,.83,2.85,2.85,0,0,1,2-.83Z" transform="translate(-243.36 -321.01)" style="fill:#0077b6"/><path d="M264.46,361.91a2.76,2.76,0,0,1,1.58.48,2.78,2.78,0,0,0-1.58-.48h0Z" transform="translate(-243.36 -321.01)" style="fill:#0077b6"/><path d="M243.58,363.63a2.77,2.77,0,0,1,.61-.89A2.77,2.77,0,0,0,243.58,363.63Z" transform="translate(-243.36 -321.01)" style="fill:#0077b6"/><rect x="12.79" y="37.22" height="7.35" style="fill:#0077b6"/><path d="M266,362.39a2.76,2.76,0,0,0-1.58-.48H246.19a2.85,2.85,0,0,0-2,.83,3.12,3.12,0,0,0-.61.89,2.87,2.87,0,0,0-.21,1.1v16.16a2.82,2.82,0,0,0,2.83,2.83h.87v17.06h16.2V383.72h1.2a2.83,2.83,0,0,0,2.83-2.83V364.73A2.86,2.86,0,0,0,266,362.39Z" transform="translate(-243.36 -321.01)" style="fill:#0077b6"/><path d="M259.82,347.3a6.4,6.4,0,1,0-7.35,10.27,6.45,6.45,0,0,0,2.81.65,6.41,6.41,0,0,0,4.54-10.92Z" transform="translate(-243.36 -321.01)" style="fill:#0077b6"/></svg>