<svg xmlns="http://www.w3.org/2000/svg" viewBox="0 0 677.42 420.81"><g id="Speech_Bubble" data-name="Speech Bubble"><path d="M457.05,397.7a16.65,16.65,0,0,1,24.71,12.82c-10.09,0-20-2.35-24.71-12.82" transform="translate(-23.43 10.29)" style="fill:#ebebeb"/><path d="M468.82,387.36A21.56,21.56,0,0,0,497,364.89c-12.82,2.52-24.86,8-28.17,22.47" transform="translate(-23.43 10.29)" style="fill:#ebebeb"/><path d="M424.85,404.44a4.71,4.71,0,0,1,.63-.25l1.84-.62c1.61-.52,3.93-1.28,6.78-2.27,5.7-2,13.54-4.83,22-8.51,4.22-1.85,8.18-3.73,11.74-5.53s6.67-3.58,9.24-5.15a61.42,61.42,0,0,0,5.88-4c1.32-1,2-1.71,2-1.67a2.57,2.57,0,0,1-.45.5,16,16,0,0,1-1.43,1.33,53.27,53.27,0,0,1-5.81,4.19c-2.56,1.62-5.69,3.41-9.22,5.27s-7.52,3.72-11.75,5.58c-8.45,3.68-16.32,6.5-22.06,8.38-2.87,1-5.21,1.65-6.84,2.11l-1.87.53A2.69,2.69,0,0,1,424.85,404.44Z" transform="translate(-23.43 10.29)" style="fill:#e0e0e0"/><path d="M470,403.58c0,.08-1.22-.74-3.24-1.83a40.12,40.12,0,0,0-8.27-3.32,39.44,39.44,0,0,0-8.81-1.35c-2.29-.09-3.71,0-3.71-.08a3.88,3.88,0,0,1,1-.16,23.34,23.34,0,0,1,2.73-.13A34.47,34.47,0,0,1,467,401.43a23,23,0,0,1,2.28,1.51A3.77,3.77,0,0,1,470,403.58Z" transform="translate(-23.43 10.29)" style="fill:#e0e0e0"/><path d="M231.79,358.62A21,21,0,0,0,252.49,387c-1.92-12.59-6.76-24.54-20.7-28.36" transform="translate(-23.43 10.29)" style="fill:#ebebeb"/><path d="M229.81,352.44c.09,0,.43,1.38,1.16,3.57a53.5,53.5,0,0,0,3.55,8.28,52.54,52.54,0,0,0,4.93,7.54c1.43,1.82,2.4,2.88,2.33,2.94a4.55,4.55,0,0,1-.75-.67c-.47-.45-1.11-1.15-1.87-2a44.59,44.59,0,0,1-5.1-7.53,44,44,0,0,1-3.44-8.42c-.32-1.12-.55-2-.67-2.68A4.24,4.24,0,0,1,229.81,352.44Z" transform="translate(-23.43 10.29)" style="fill:#e0e0e0"/><path d="M31.94,106.28A32.54,32.54,0,0,0,64,150.21c-3-19.5-10.47-38-32.08-43.93" transform="translate(-23.43 10.29)" style="fill:#ebebeb"/><path d="M28.89,96.72a8.3,8.3,0,0,1,.47,1.49c.26,1,.67,2.36,1.22,4.07a77.73,77.73,0,0,0,13.16,24.54c1.11,1.4,2,2.52,2.71,3.27a7.8,7.8,0,0,1,1,1.22,10.72,10.72,0,0,1-1.13-1.08c-.71-.71-1.69-1.8-2.85-3.18a69.71,69.71,0,0,1-13.22-24.66c-.51-1.73-.87-3.14-1.07-4.13A9.51,9.51,0,0,1,28.89,96.72Z" transform="translate(-23.43 10.29)" style="fill:#e0e0e0"/><path d="M65.73,305.33a21,21,0,0,0,3.39,34.94c4.76-11.81,6.67-24.56-3.39-34.94" transform="translate(-23.43 10.29)" style="fill:#ebebeb"/><path d="M67.18,299c.08,0-.33,1.4-.82,3.66a52.49,52.49,0,0,0-1.16,8.93,53.21,53.21,0,0,0,.4,9c.31,2.29.6,3.7.52,3.72a3.78,3.78,0,0,1-.31-1c-.17-.62-.37-1.55-.57-2.69A44,44,0,0,1,66,302.58a27.11,27.11,0,0,1,.79-2.64A3.37,3.37,0,0,1,67.18,299Z" transform="translate(-23.43 10.29)" style="fill:#e0e0e0"/><path d="M251.32,52.47a21,21,0,0,0,30.33-17.69c-12.72.62-25.1,4.2-30.33,17.69" transform="translate(-23.43 10.29)" style="fill:#ebebeb"/><path d="M245,53.79c0-.08,1.41-.28,3.67-.78a53.18,53.18,0,0,0,8.6-2.68,53.41,53.41,0,0,0,8-4.13c2-1.23,3.11-2.09,3.16-2a3.92,3.92,0,0,1-.75.68c-.49.42-1.25,1-2.21,1.65a43.93,43.93,0,0,1-8,4.3,43.45,43.45,0,0,1-8.73,2.56c-1.14.21-2.08.34-2.73.39A3.74,3.74,0,0,1,245,53.79Z" transform="translate(-23.43 10.29)" style="fill:#e0e0e0"/><path d="M225.4,50.65a28.22,28.22,0,0,0,20-17.08,28.19,28.19,0,0,0-3.29-26.09c-12.6,11.09-22.42,25-16.72,43.17" transform="translate(-23.43 10.29)" style="fill:#ebebeb"/><path d="M220,57.23a6.18,6.18,0,0,1,.84-1c.57-.63,1.38-1.57,2.34-2.75a68.8,68.8,0,0,0,6.69-9.84,68.76,68.76,0,0,0,4.84-10.86c.49-1.44.87-2.62,1.11-3.44a5.8,5.8,0,0,1,.43-1.26,6.81,6.81,0,0,1-.24,1.31c-.18.84-.5,2-1,3.5a58.77,58.77,0,0,1-4.74,11,59.3,59.3,0,0,1-6.86,9.82c-1,1.15-1.85,2.06-2.47,2.65A6.69,6.69,0,0,1,220,57.23Z" transform="translate(-23.43 10.29)" style="fill:#e0e0e0"/><path d="M307.43,393.21a12.65,12.65,0,0,0,21,2.37c-6.37-4.28-13.64-7-21-2.37" transform="translate(-23.43 10.29)" style="fill:#ebebeb"/><path d="M303.89,391.57a56.93,56.93,0,0,0,7.2,2.64,59.4,59.4,0,0,0,7.58,1.15,8.1,8.1,0,0,1-2.28.13,25,25,0,0,1-10.57-2.71A7.08,7.08,0,0,1,303.89,391.57Z" transform="translate(-23.43 10.29)" style="fill:#e0e0e0"/><path d="M400.13,34.17a12.64,12.64,0,0,0,21.07-1.74c-7.07-3-14.73-4.22-21.07,1.74" transform="translate(-23.43 10.29)" style="fill:#ebebeb"/><path d="M396.34,33.25a57.69,57.69,0,0,0,7.57,1.2,58,58,0,0,0,7.66-.35,7.46,7.46,0,0,1-2.21.57,25.45,25.45,0,0,1-5.48.3,25.07,25.07,0,0,1-5.42-.91A7.36,7.36,0,0,1,396.34,33.25Z" transform="translate(-23.43 10.29)" style="fill:#e0e0e0"/><path d="M640.36,64.93a21,21,0,0,0,26.38-23.15c-12.36,3-23.83,8.93-26.38,23.15" transform="translate(-23.43 10.29)" style="fill:#ebebeb"/><path d="M634.39,67.45c0-.08,1.33-.55,3.45-1.47a53.14,53.14,0,0,0,7.93-4.27,53.62,53.62,0,0,0,7.06-5.59c1.69-1.58,2.65-2.65,2.72-2.59a4.61,4.61,0,0,1-.6.82c-.41.5-1.05,1.2-1.86,2A43.83,43.83,0,0,1,638,66.32c-1.08.42-2,.73-2.6.9A3.59,3.59,0,0,1,634.39,67.45Z" transform="translate(-23.43 10.29)" style="fill:#e0e0e0"/><path d="M664,369.72a36.53,36.53,0,0,0,21.18-57.28c-16.39,14.89-29.06,33.4-21.18,57.28" transform="translate(-23.43 10.29)" style="fill:#ebebeb"/><path d="M657,378.52a9.87,9.87,0,0,1,1.12-1.36c.74-.84,1.79-2.09,3-3.66s2.68-3.5,4.18-5.7,3-4.71,4.47-7.41,2.67-5.36,3.7-7.82,1.83-4.71,2.44-6.63,1.08-3.48,1.37-4.57a13.6,13.6,0,0,1,.51-1.68,11,11,0,0,1-.31,1.73c-.23,1.11-.64,2.69-1.21,4.63s-1.36,4.22-2.35,6.71-2.24,5.15-3.69,7.88a86.65,86.65,0,0,1-4.53,7.43c-1.53,2.2-3,4.12-4.29,5.66s-2.4,2.77-3.2,3.57A11.68,11.68,0,0,1,657,378.52Z" transform="translate(-23.43 10.29)" style="fill:#e0e0e0"/><path d="M528.28,243.64c-6.32-35.25-36.58-66-72.27-68.93-19.45-1.59-39,4.55-58.38,2.21a68,68,0,0,1-42.48-22.41c-16-18.2-21.42-44.09-38.35-61.41-23.34-23.88-64.07-24.26-92.47-6.69s-45.57,49.28-53.43,81.73l-.31,9.87c-1.71,33.66,7.15,72.79,26.68,102.8,19.78,30.39,32.8,42.94,68.86,64.8,30.62,18.56,90.58,26.72,126.38,27.59s72.57-9.81,99.49-33.42S534.6,278.89,528.28,243.64Z" transform="translate(-23.43 10.29)" style="fill:#0f2449"/><g style="opacity:0.8"><path d="M528.28,243.64c-6.32-35.25-36.58-66-72.27-68.93-19.45-1.59-39,4.55-58.38,2.21a68,68,0,0,1-42.48-22.41c-16-18.2-21.42-44.09-38.35-61.41-23.34-23.88-64.07-24.26-92.47-6.69s-45.57,49.28-53.43,81.73l-.31,9.87c-1.71,33.66,7.15,72.79,26.68,102.8,19.78,30.39,32.8,42.94,68.86,64.8,30.62,18.56,90.58,26.72,126.38,27.59s72.57-9.81,99.49-33.42S534.6,278.89,528.28,243.64Z" transform="translate(-23.43 10.29)" style="fill:#0f2449"/></g><circle cx="546.28" cy="367" r="17.25" transform="translate(81.2 865.19) rotate(-81.74)" style="fill:#e8505b"/><circle cx="546.28" cy="367" r="17.25" transform="translate(81.2 865.19) rotate(-81.74)" style="fill:#fff;opacity:0.8"/><path d="M425.22,234.29q.5,51.66-22.52,79t-63,27.71q-40.18.38-63.91-26.49T251.55,236L251,175.4q-.5-51.45,22.52-79t63.2-27.89q40-.39,63.73,26.67t24.22,78.52Zm-44.84-66.92q-.3-32.52-11.37-48T337,104q-20.93.19-31.59,15.93t-10.36,48.25l.71,73.59q.31,32.7,11.47,48.31t32.06,15.41q20.91-.19,31.5-15.93T381.09,241Z" transform="translate(-23.43 10.29)" style="fill:#111827"/><g style="opacity:0.4"><path d="M425.22,234.29q.5,51.66-22.52,79t-63,27.71q-40.18.38-63.91-26.49T251.55,236L251,175.4q-.5-51.45,22.52-79t63.2-27.89q40-.39,63.73,26.67t24.22,78.52Zm-44.84-66.92q-.3-32.52-11.37-48T337,104q-20.93.19-31.59,15.93t-10.36,48.25l.71,73.59q.31,32.7,11.47,48.31t32.06,15.41q20.91-.19,31.5-15.93T381.09,241Z" transform="translate(-23.43 10.29)"/></g><path d="M450.68,234.05q.49,51.65-22.52,79t-63,27.7q-40.19.39-63.91-26.48T277,235.72l-.58-60.56q-.49-51.46,22.52-79t63.2-27.89q40-.37,63.73,26.67t24.22,78.52Zm-44.84-66.92q-.31-32.52-11.37-48t-32-15.32q-20.91.2-31.58,15.93T320.55,168l.71,73.58q.32,32.71,11.47,48.32t32.06,15.41q20.91-.19,31.5-15.93t10.26-48.62Z" transform="translate(-23.43 10.29)" style="fill:#111827"/><path d="M276.61,178.76c.05.13-5.86,2.48-13.21,5.24s-13.33,4.89-13.39,4.75,5.87-2.48,13.21-5.24S276.56,178.62,276.61,178.76Z" transform="translate(-23.43 10.29)" style="fill:#e8505b"/><path d="M278.08,202.69c.05.13-5.86,2.48-13.21,5.24s-13.34,4.89-13.39,4.75,5.86-2.48,13.21-5.24S278,202.55,278.08,202.69Z" transform="translate(-23.43 10.29)" style="fill:#e8505b"/><path d="M279.55,226.62c.05.13-5.87,2.48-13.21,5.24S253,236.75,253,236.61s5.86-2.48,13.21-5.24S279.5,226.48,279.55,226.62Z" transform="translate(-23.43 10.29)" style="fill:#e8505b"/><path d="M281,250.55c.05.13-5.87,2.48-13.21,5.24s-13.34,4.89-13.39,4.75,5.86-2.48,13.21-5.24S281,250.41,281,250.55Z" transform="translate(-23.43 10.29)" style="fill:#e8505b"/><path d="M282.49,274.48a4.43,4.43,0,0,1-.92.45c-.6.26-1.48.62-2.57,1.05-2.17.87-5.18,2-8.53,3.29s-6.38,2.37-8.58,3.14c-1.11.39-2,.7-2.62.9a3.61,3.61,0,0,1-1,.26,4.14,4.14,0,0,1,.91-.45c.61-.26,1.48-.62,2.57-1.05,2.17-.87,5.19-2,8.53-3.29s6.38-2.36,8.59-3.14c1.1-.39,2-.7,2.62-.9A3.44,3.44,0,0,1,282.49,274.48Z" transform="translate(-23.43 10.29)" style="fill:#e8505b"/><path d="M289.32,296.37a20,20,0,0,1-3,1.33c-1.89.76-4.52,1.78-7.43,2.88s-5.57,2.06-7.49,2.73a19.88,19.88,0,0,1-3.16,1,20,20,0,0,1,3-1.33c1.89-.76,4.52-1.78,7.43-2.88s5.57-2.06,7.49-2.73A19.88,19.88,0,0,1,289.32,296.37Z" transform="translate(-23.43 10.29)" style="fill:#e8505b"/><path d="M303.94,316.45a15.4,15.4,0,0,1-2.68,1.21c-1.69.68-4,1.59-6.63,2.57s-4.95,1.83-6.67,2.43a16.86,16.86,0,0,1-2.82.86,15.32,15.32,0,0,1,2.69-1.21c1.68-.68,4-1.59,6.62-2.57s5-1.83,6.68-2.43A16.63,16.63,0,0,1,303.94,316.45Z" transform="translate(-23.43 10.29)" style="fill:#e8505b"/><path d="M328.26,329.62a18.09,18.09,0,0,1-2.69,1.2c-1.69.69-4,1.6-6.63,2.57s-4.95,1.84-6.67,2.43a15.47,15.47,0,0,1-2.82.86,16.91,16.91,0,0,1,2.69-1.2c1.68-.69,4-1.6,6.62-2.57s5-1.84,6.68-2.43A15.22,15.22,0,0,1,328.26,329.62Z" transform="translate(-23.43 10.29)" style="fill:#e8505b"/><path d="M401.58,278.55c.06.14-7.53,3.68-16.95,7.91s-17.11,7.56-17.17,7.43,7.53-3.67,17-7.9S401.52,278.42,401.58,278.55Z" transform="translate(-23.43 10.29)" style="fill:#e8505b"/><path d="M406.56,258.05c.06.13-6.21,3.08-14,6.58s-14.15,6.23-14.21,6.1,6.21-3.08,14-6.58S406.5,257.92,406.56,258.05Z" transform="translate(-23.43 10.29)" style="fill:#e8505b"/><path d="M408.85,235c.06.13-6.21,3.07-14,6.57s-14.15,6.24-14.21,6.11,6.2-3.08,14-6.58S408.79,234.89,408.85,235Z" transform="translate(-23.43 10.29)" style="fill:#e8505b"/><path d="M411.14,212c.06.13-6.21,3.07-14,6.57s-14.15,6.24-14.21,6.1,6.2-3.07,14-6.57S411.08,211.85,411.14,212Z" transform="translate(-23.43 10.29)" style="fill:#e8505b"/><path d="M413.43,189c.06.13-6.2,3.08-14,6.58s-14.15,6.23-14.21,6.1,6.21-3.07,14-6.57S413.37,188.82,413.43,189Z" transform="translate(-23.43 10.29)" style="fill:#e8505b"/><path d="M408.85,168.44c.06.13-6.21,3.08-14,6.58s-14.15,6.23-14.21,6.1,6.2-3.07,14-6.58S408.79,168.31,408.85,168.44Z" transform="translate(-23.43 10.29)" style="fill:#e8505b"/><path d="M408.85,146.36c.06.13-6.21,3.08-14,6.58s-14.15,6.23-14.21,6.1,6.2-3.07,14-6.58S408.79,146.23,408.85,146.36Z" transform="translate(-23.43 10.29)" style="fill:#e8505b"/><path d="M406.56,125.57c.06.13-6.21,3.07-14,6.58s-14.15,6.23-14.21,6.1,6.21-3.08,14-6.58S406.5,125.44,406.56,125.57Z" transform="translate(-23.43 10.29)" style="fill:#e8505b"/><path d="M386.8,111.08a81.6,81.6,0,0,1-8.47,4.1,84.89,84.89,0,0,1-8.68,3.62,84.09,84.09,0,0,1,8.47-4.1A87.08,87.08,0,0,1,386.8,111.08Z" transform="translate(-23.43 10.29)" style="fill:#e8505b"/><path d="M376.24,102.21a82.88,82.88,0,0,1-8.47,4.09,84.89,84.89,0,0,1-8.68,3.62,85.45,85.45,0,0,1,8.47-4.09A86,86,0,0,1,376.24,102.21Z" transform="translate(-23.43 10.29)" style="fill:#e8505b"/><path d="M277.74,149.75c.05.14-5.86,2.48-13.2,5.24s-13.34,4.89-13.39,4.75,5.86-2.48,13.2-5.24S277.69,149.62,277.74,149.75Z" transform="translate(-23.43 10.29)" style="fill:#e8505b"/><path d="M285.1,119.91c0,.13-6.36,2.67-14.32,5.66s-14.45,5.3-14.5,5.17,6.36-2.67,14.32-5.66S285.05,119.77,285.1,119.91Z" transform="translate(-23.43 10.29)" style="fill:#e8505b"/><path d="M304.32,90.37c.06.14-8.07,3.32-18.15,7.1s-18.29,6.75-18.34,6.62,8.08-3.32,18.16-7.1S304.27,90.24,304.32,90.37Z" transform="translate(-23.43 10.29)" style="fill:#e8505b"/><path d="M446.37,278.89s-.14,0-.42-.15l-1.2-.46c-.53-.2-1.22-.35-2-.57a19.43,19.43,0,0,0-2.83-.34c-4.27-.28-10.67,1.27-16.86,5.91a47.61,47.61,0,0,0-8.93,8.83c-2.87,3.51-5.68,7.48-8.87,11.49a53.05,53.05,0,0,1-11.52,11.17,41.88,41.88,0,0,1-16,6.46,41.15,41.15,0,0,1-17.19-.58,80.76,80.76,0,0,1-15.05-5.59c-4.65-2.15-9-4.34-13.15-6.15a69.21,69.21,0,0,0-11.92-4.06,44.48,44.48,0,0,0-10.3-1.18,31.41,31.41,0,0,0-7.75,1.05,28.43,28.43,0,0,0-4.61,1.81l-1.14.61-.4.19a2,2,0,0,1,.37-.24l1.12-.65a25.61,25.61,0,0,1,4.61-1.91,30.74,30.74,0,0,1,7.8-1.15,43.94,43.94,0,0,1,10.39,1.12,68.56,68.56,0,0,1,12,4c4.18,1.79,8.53,4,13.17,6.11a81.64,81.64,0,0,0,15,5.53,40.51,40.51,0,0,0,17,.55,41.27,41.27,0,0,0,15.75-6.37,52.31,52.31,0,0,0,11.44-11c3.19-4,6-7.95,8.9-11.46a48.28,48.28,0,0,1,9.05-8.86c6.28-4.64,12.77-6.16,17.09-5.82a18.8,18.8,0,0,1,2.85.4c.8.24,1.49.4,2,.62l1.19.51A1.87,1.87,0,0,1,446.37,278.89Z" transform="translate(-23.43 10.29)" style="fill:#fff"/><path d="M452.68,212.14c0,.05-.72.15-1.95.56a19,19,0,0,0-4.83,2.58c-1.91,1.33-4,3.19-6.41,5.11a46.06,46.06,0,0,1-8.59,5.29,47.31,47.31,0,0,1-17.67,4.57c-1.17.09-2.23.06-3.16.08s-1.73-.05-2.39-.1l-1.5-.16a1.88,1.88,0,0,1-.52-.09,2.8,2.8,0,0,1,.53,0l1.5.05,2.38,0c.92,0,2,0,3.14-.16a49.06,49.06,0,0,0,17.46-4.67A47.6,47.6,0,0,0,439.2,220c2.43-1.89,4.54-3.73,6.49-5a18,18,0,0,1,5-2.48,11.36,11.36,0,0,1,1.48-.32A2.1,2.1,0,0,1,452.68,212.14Z" transform="translate(-23.43 10.29)" style="fill:#fff"/><path d="M322.05,235.31a2.85,2.85,0,0,1-.55-.08c-.35-.08-.89-.16-1.55-.35a23.38,23.38,0,0,1-5.36-2.35,54.22,54.22,0,0,1-7-5.11c-2.51-2.07-5.19-4.45-8.26-6.57a28.93,28.93,0,0,0-23.73-4.29c-1.33.34-2.05.6-2.06.55a1.66,1.66,0,0,1,.5-.23,14.21,14.21,0,0,1,1.51-.51,25.31,25.31,0,0,1,5.75-1.05,28.17,28.17,0,0,1,18.32,5.1c3.11,2.15,5.79,4.54,8.28,6.63a57.31,57.31,0,0,0,6.88,5.17,26,26,0,0,0,5.23,2.47A20,20,0,0,1,322.05,235.31Z" transform="translate(-23.43 10.29)" style="fill:#fff"/><path d="M322.23,140.78a10.55,10.55,0,0,1-1.67.61c-.54.19-1.21.4-2,.6s-1.67.46-2.68.64-2.1.43-3.3.58-2.47.29-3.82.41a58,58,0,0,1-8.8-.11,57.26,57.26,0,0,1-8.67-1.53c-1.31-.37-2.55-.7-3.68-1.12s-2.19-.79-3.13-1.18-1.78-.79-2.52-1.14-1.35-.67-1.85-.95a11.57,11.57,0,0,1-1.52-.91,12.19,12.19,0,0,1,1.61.73c.51.26,1.14.56,1.88.87s1.58.71,2.54,1.06,2,.76,3.13,1.11,2.36.71,3.66,1.06A62.11,62.11,0,0,0,300,143a62.83,62.83,0,0,0,8.72.14c1.34-.11,2.61-.18,3.79-.36s2.29-.33,3.29-.51,1.89-.39,2.68-.57,1.47-.34,2-.5A12.83,12.83,0,0,1,322.23,140.78Z" transform="translate(-23.43 10.29)" style="fill:#fff"/><path d="M447,140.53a1.84,1.84,0,0,1-.42-.21c-.32-.18-.71-.4-1.16-.67a19.68,19.68,0,0,0-1.86-1c-.74-.36-1.56-.82-2.53-1.19l-1.5-.63c-.53-.21-1.1-.37-1.67-.57-1.15-.42-2.42-.71-3.74-1.06a46.1,46.1,0,0,0-8.83-1,45.06,45.06,0,0,0-8.85.88c-1.33.32-2.61.59-3.76,1-.58.19-1.15.34-1.68.54l-1.51.6a27.52,27.52,0,0,0-2.55,1.15,17.57,17.57,0,0,0-1.88,1l-1.17.65a2.22,2.22,0,0,1-.43.2s.12-.12.38-.29l1.12-.74a16.58,16.58,0,0,1,1.84-1.06,26.68,26.68,0,0,1,2.55-1.23l1.51-.63c.53-.22,1.11-.38,1.69-.58a37.5,37.5,0,0,1,3.79-1.05,43.07,43.07,0,0,1,9-.93,43.92,43.92,0,0,1,8.94,1.09c1.33.36,2.62.67,3.77,1.11.58.21,1.15.39,1.67.61l1.51.66a28,28,0,0,1,2.52,1.27,16.33,16.33,0,0,1,1.82,1.1l1.11.76C446.88,140.41,447,140.51,447,140.53Z" transform="translate(-23.43 10.29)" style="fill:#fff"/><path d="M385.86,72.6a4.3,4.3,0,0,1-.72.44L383,74.19c-1.85,1-4.54,2.39-7.89,4.07-6.7,3.32-16.12,7.84-27.25,10.66a74,74,0,0,1-16,2.22A57.38,57.38,0,0,1,318.76,90a46.24,46.24,0,0,1-8.5-2.6c-1-.38-1.69-.78-2.2-1a4.62,4.62,0,0,1-.74-.39,4.85,4.85,0,0,1,.79.3c.51.19,1.24.56,2.23.91a49.13,49.13,0,0,0,8.49,2.42,58.41,58.41,0,0,0,13.05,1,76.28,76.28,0,0,0,15.87-2.24c11.07-2.81,20.48-7.26,27.22-10.49L382.92,74l2.17-1.07A8.35,8.35,0,0,1,385.86,72.6Z" transform="translate(-23.43 10.29)" style="fill:#fff"/><path d="M185.12,246.84l33.43,1.46L217,283.73l-33.43-1.46L181,341.14l-44-1.92,2.57-58.87L26,275.39l.09-27,121-173.8,45.43,2Zm-115-5,71.05,3.1,4.68-107.38-1.07-.41-4,7.65Z" transform="translate(-23.43 10.29)" style="fill:#111827"/><g style="opacity:0.4"><path d="M185.12,246.84l33.43,1.46L217,283.73l-33.43-1.46L181,341.14l-44-1.92,2.57-58.87L26,275.39l.09-27,121-173.8,45.43,2Zm-115-5,71.05,3.1,4.68-107.38-1.07-.41-4,7.65Z" transform="translate(-23.43 10.29)"/></g><path d="M213.07,248.06l33.44,1.46L245,285l-33.43-1.46L209,342.36l-44-1.92,2.57-58.87L54,276.61l.09-27,121-173.8,45.42,2Zm-115-5,71,3.1,4.69-107.38-1.07-.41-4,7.65Z" transform="translate(-23.43 10.29)" style="fill:#111827"/><path d="M54.65,254.76a4.94,4.94,0,0,1-1.08.61c-.71.36-1.75.86-3,1.46-2.58,1.21-6.16,2.83-10.17,4.52S32.7,264.49,30,265.5c-1.34.5-2.42.9-3.17,1.15a6.3,6.3,0,0,1-1.19.36,4.84,4.84,0,0,1,1.12-.54l3.1-1.31,10.26-4.29,10.22-4.37,3.11-1.32A6,6,0,0,1,54.65,254.76Z" transform="translate(-23.43 10.29)" style="fill:#e8505b"/><path d="M70.92,224.82a10.83,10.83,0,0,1-1.5.79c-1,.48-2.42,1.16-4.2,2-3.57,1.62-8.53,3.8-14,6.12S40.67,238.07,37,239.5c-1.82.71-3.31,1.27-4.34,1.64a11.83,11.83,0,0,1-1.62.53,9.91,9.91,0,0,1,1.55-.72l4.27-1.8L51,233.22l14.08-6,4.27-1.81A9,9,0,0,1,70.92,224.82Z" transform="translate(-23.43 10.29)" style="fill:#e8505b"/><path d="M90.79,198.11a9.39,9.39,0,0,1-1.57.8c-1,.48-2.53,1.16-4.39,2-3.73,1.63-8.9,3.8-14.65,6.13s-11,4.36-14.78,5.79c-1.9.71-3.45,1.27-4.52,1.64a10.35,10.35,0,0,1-1.69.52,13.59,13.59,0,0,1,1.62-.71l4.46-1.8L70,206.52l14.69-6,4.46-1.81A12.27,12.27,0,0,1,90.79,198.11Z" transform="translate(-23.43 10.29)" style="fill:#e8505b"/><path d="M170.38,229a5,5,0,0,1-1.08.59c-.72.35-1.76.83-3.05,1.42-2.58,1.16-6.18,2.72-10.19,4.34s-7.68,3-10.35,4c-1.33.48-2.41.86-3.17,1.11a5.3,5.3,0,0,1-1.19.33,5.91,5.91,0,0,1,1.12-.52l3.11-1.26,10.28-4.11,10.25-4.2c1.23-.5,2.27-.93,3.11-1.26A6.31,6.31,0,0,1,170.38,229Z" transform="translate(-23.43 10.29)" style="fill:#e8505b"/><path d="M167.15,283.89a4.82,4.82,0,0,1-1.05.59c-.69.35-1.7.83-2.95,1.41-2.5,1.17-6,2.72-9.87,4.35s-7.45,3-10,4c-1.29.48-2.34.86-3.07,1.1a5.91,5.91,0,0,1-1.16.34,5.36,5.36,0,0,1,1.08-.52l3-1.26,10-4.11,9.92-4.2,3-1.27A5.44,5.44,0,0,1,167.15,283.89Z" transform="translate(-23.43 10.29)" style="fill:#e8505b"/><path d="M166.69,303.15a5.54,5.54,0,0,1-1.05.58c-.69.35-1.7.83-2.95,1.42-2.5,1.16-6,2.72-9.88,4.34s-7.44,3-10,4c-1.29.49-2.35.86-3.08,1.11a5.74,5.74,0,0,1-1.15.34,4.69,4.69,0,0,1,1.08-.53l3-1.26,10-4.11,9.93-4.2,3-1.26A5.38,5.38,0,0,1,166.69,303.15Z" transform="translate(-23.43 10.29)" style="fill:#e8505b"/><path d="M166.23,322.4a5.18,5.18,0,0,1-1,.59c-.69.35-1.7.83-3,1.41-2.51,1.17-6,2.72-9.88,4.35s-7.44,3-10,4c-1.3.48-2.35.86-3.08,1.11a5.79,5.79,0,0,1-1.16.33,5.69,5.69,0,0,1,1.09-.52l3-1.26,10-4.11,9.93-4.2,3-1.27A6.23,6.23,0,0,1,166.23,322.4Z" transform="translate(-23.43 10.29)" style="fill:#e8505b"/><path d="M170.91,208.61a5.69,5.69,0,0,1-1.09.59c-.71.35-1.76.83-3,1.41-2.58,1.17-6.18,2.72-10.19,4.35s-7.68,3-10.34,4c-1.34.48-2.42.86-3.18,1.11a6.36,6.36,0,0,1-1.18.33,5.22,5.22,0,0,1,1.11-.52l3.11-1.26,10.28-4.11,10.25-4.2,3.11-1.27A5.66,5.66,0,0,1,170.91,208.61Z" transform="translate(-23.43 10.29)" style="fill:#e8505b"/><path d="M171.43,188.27a6.48,6.48,0,0,1-1.09.59c-.71.34-1.76.83-3.05,1.41-2.58,1.17-6.18,2.72-10.19,4.35s-7.68,3-10.34,4c-1.34.48-2.42.86-3.18,1.1a6,6,0,0,1-1.18.34,4.88,4.88,0,0,1,1.11-.53l3.12-1.26,10.28-4.11,10.24-4.2,3.11-1.26A5.66,5.66,0,0,1,171.43,188.27Z" transform="translate(-23.43 10.29)" style="fill:#e8505b"/><path d="M172,167.93a5.73,5.73,0,0,1-1,.56c-.68.33-1.67.8-2.9,1.35-2.46,1.12-5.88,2.61-9.7,4.16s-7.32,2.86-9.86,3.77c-1.27.45-2.31.81-3,1a5.16,5.16,0,0,1-1.13.32,5.19,5.19,0,0,1,1.06-.51l3-1.2,9.79-3.91,9.76-4,3-1.2A4.44,4.44,0,0,1,172,167.93Z" transform="translate(-23.43 10.29)" style="fill:#e8505b"/><path d="M174.24,148.92a28.78,28.78,0,0,1-5,2.13A27.89,27.89,0,0,1,164,152.7a28.78,28.78,0,0,1,5-2.13A27.89,27.89,0,0,1,174.24,148.92Z" transform="translate(-23.43 10.29)" style="fill:#e8505b"/><path d="M110.63,170.43a11.81,11.81,0,0,1-1.58.8c-1,.48-2.53,1.15-4.39,2-3.72,1.63-8.9,3.8-14.64,6.13s-11,4.37-14.78,5.79c-1.9.71-3.45,1.27-4.52,1.64a13.06,13.06,0,0,1-1.69.53,11.22,11.22,0,0,1,1.61-.71l4.46-1.8,14.72-5.93,14.7-6L109,171A13.28,13.28,0,0,1,110.63,170.43Z" transform="translate(-23.43 10.29)" style="fill:#e8505b"/><path d="M130.47,142.74a10.48,10.48,0,0,1-1.58.8c-1,.48-2.53,1.16-4.39,2-3.72,1.63-8.9,3.8-14.64,6.13s-11,4.36-14.79,5.79c-1.9.71-3.44,1.27-4.52,1.64a9.72,9.72,0,0,1-1.69.52,13.59,13.59,0,0,1,1.62-.71l4.46-1.8,14.72-5.93,14.69-6,4.46-1.81A11.49,11.49,0,0,1,130.47,142.74Z" transform="translate(-23.43 10.29)" style="fill:#e8505b"/><path d="M148.8,115.06a13.55,13.55,0,0,1-1.58.8c-1,.48-2.53,1.15-4.39,2-3.72,1.63-8.9,3.8-14.64,6.13s-11,4.37-14.78,5.79c-1.91.71-3.45,1.27-4.53,1.64a12.72,12.72,0,0,1-1.68.53,10.43,10.43,0,0,1,1.61-.72l4.46-1.79L128,123.47l14.7-6,4.45-1.81A12.62,12.62,0,0,1,148.8,115.06Z" transform="translate(-23.43 10.29)" style="fill:#e8505b"/><path d="M167.87,88.44a10.47,10.47,0,0,1-1.57.8c-1,.48-2.53,1.15-4.39,2-3.73,1.63-8.9,3.8-14.65,6.13s-11,4.37-14.78,5.79c-1.9.71-3.45,1.27-4.52,1.65a13.19,13.19,0,0,1-1.69.52,11.8,11.8,0,0,1,1.62-.71l4.46-1.8,14.72-5.93,14.69-6,4.46-1.82A12.9,12.9,0,0,1,167.87,88.44Z" transform="translate(-23.43 10.29)" style="fill:#e8505b"/><path d="M218.5,129.12a5.78,5.78,0,0,1-.58.65,22.85,22.85,0,0,1-1.81,1.75,32.07,32.07,0,0,1-7.78,5,34,34,0,0,1-13.35,3,31.29,31.29,0,0,1-8.09-.91,41,41,0,0,1-8.18-3c-5.37-2.62-10.15-5.71-14.83-7.86a33.92,33.92,0,0,0-13.09-3.42,19.42,19.42,0,0,0-8.93,1.67,16.57,16.57,0,0,0-2.17,1.24,4.84,4.84,0,0,1-.74.47,6.16,6.16,0,0,1,.68-.55,13.48,13.48,0,0,1,2.14-1.34,19,19,0,0,1,9-1.85,33.76,33.76,0,0,1,13.29,3.35c4.72,2.14,9.51,5.23,14.85,7.82a41.12,41.12,0,0,0,8.07,3,31.17,31.17,0,0,0,8,.92,34.08,34.08,0,0,0,13.21-2.9,33.38,33.38,0,0,0,7.8-4.83c.85-.68,1.45-1.28,1.86-1.67A4.32,4.32,0,0,1,218.5,129.12Z" transform="translate(-23.43 10.29)" style="fill:#fff"/><path d="M204.58,79.67a9.09,9.09,0,0,1-1.28.74c-.82.45-2.06,1-3.62,1.7a54.89,54.89,0,0,1-5.6,2,60.11,60.11,0,0,1-7.1,1.63,61.34,61.34,0,0,1-7.25.71,53,53,0,0,1-5.94-.12c-1.69-.13-3-.29-4-.46a8.44,8.44,0,0,1-1.44-.29,7.68,7.68,0,0,1,1.47.09c.93.11,2.29.22,4,.3s3.68.09,5.9,0a67.79,67.79,0,0,0,7.19-.74,66.65,66.65,0,0,0,7-1.58c2.13-.62,4-1.26,5.59-1.88s2.82-1.15,3.68-1.54A7.76,7.76,0,0,1,204.58,79.67Z" transform="translate(-23.43 10.29)" style="fill:#fff"/><path d="M133.58,190.73a7.42,7.42,0,0,1-.9-1l-2.37-2.82a112,112,0,0,0-8.37-8.75,30.65,30.65,0,0,0-5.25-4,15.94,15.94,0,0,0-5-1.94,14.07,14.07,0,0,0-5,0s.1-.06.32-.13a5.65,5.65,0,0,1,1-.23,11.2,11.2,0,0,1,3.71,0,15.75,15.75,0,0,1,5.17,1.89,28.76,28.76,0,0,1,5.36,4.07,88.74,88.74,0,0,1,8.31,8.9c1,1.21,1.74,2.22,2.24,2.92A6.14,6.14,0,0,1,133.58,190.73Z" transform="translate(-23.43 10.29)" style="fill:#fff"/><path d="M213.35,221a2.79,2.79,0,0,1-.39.3c-.27.17-.66.46-1.19.76a27.93,27.93,0,0,1-4.69,2.23,30.61,30.61,0,0,1-32-6.55,28.54,28.54,0,0,1-3.43-3.89c-.37-.49-.61-.9-.79-1.17s-.26-.42-.24-.43.43.53,1.19,1.48a33,33,0,0,0,3.52,3.74,31.12,31.12,0,0,0,31.6,6.47,32.72,32.72,0,0,0,4.71-2.06A16.06,16.06,0,0,1,213.35,221Z" transform="translate(-23.43 10.29)" style="fill:#fff"/><path d="M242.48,284.26s-.1-.15-.28-.46l-.8-1.39a39,39,0,0,0-3.42-5.07l-1.36-1.6-.73-.87L235,274l-1.8-1.77-2.1-1.75a47.28,47.28,0,0,0-11-6.53,45.12,45.12,0,0,0-15-3.49,41.94,41.94,0,0,0-17.43,2.8c-5.85,2.3-11.5,5.77-17.48,9.13a82.88,82.88,0,0,1-9.39,4.66,38.33,38.33,0,0,1-10.45,2.74,33.86,33.86,0,0,1-10.79-.65,48,48,0,0,1-9.93-3.39,103.9,103.9,0,0,1-16.91-10.28c-5.13-3.65-10-7.17-14.81-10a54,54,0,0,0-14.23-6.08A36.73,36.73,0,0,0,71,248.6a26.88,26.88,0,0,0-9.23,2.68,23.35,23.35,0,0,0-5,3.44l-1.13,1.13c-.25.25-.39.37-.39.37s.11-.14.35-.41.63-.66,1.09-1.16a22.88,22.88,0,0,1,5-3.56,27,27,0,0,1,9.3-2.78,36.49,36.49,0,0,1,12.82.77,53.76,53.76,0,0,1,14.37,6.07c4.86,2.81,9.73,6.33,14.87,10a103.75,103.75,0,0,0,16.85,10.2,47.8,47.8,0,0,0,9.82,3.36,33.75,33.75,0,0,0,10.63.64,38.26,38.26,0,0,0,10.3-2.71A81.91,81.91,0,0,0,170,272c6-3.35,11.65-6.82,17.55-9.14a39.85,39.85,0,0,1,4.46-1.44c.75-.19,1.49-.41,2.23-.57l2.24-.37a42.78,42.78,0,0,1,8.7-.4,45.72,45.72,0,0,1,15.17,3.58,47.57,47.57,0,0,1,11,6.64l2.1,1.78q.95.93,1.8,1.8l.84.84.73.88,1.35,1.63a36,36,0,0,1,3.35,5.14l.75,1.41C242.41,284.09,242.48,284.26,242.48,284.26Z" transform="translate(-23.43 10.29)" style="fill:#fff"/><path d="M212.26,326a2.18,2.18,0,0,1-.51.13l-1.48.28a23.13,23.13,0,0,1-2.35.35c-.93.09-2,.25-3.14.27l-1.84.08c-.64,0-1.3,0-2,0-1.37,0-2.84-.13-4.38-.25a55.19,55.19,0,0,1-19.23-5.6c-1.36-.73-2.67-1.39-3.83-2.14-.58-.37-1.16-.7-1.69-1.06l-1.5-1.05c-1-.65-1.78-1.34-2.51-1.92a23.43,23.43,0,0,1-1.8-1.55l-1.09-1q-.37-.36-.36-.39a2.27,2.27,0,0,1,.43.31l1.16,1c.49.42,1.1.93,1.85,1.48s1.55,1.21,2.53,1.84l1.51,1c.53.35,1.11.66,1.69,1,1.16.72,2.47,1.37,3.83,2.08a57.13,57.13,0,0,0,19.06,5.55c1.53.13,3,.29,4.34.3.69,0,1.34.06,2,.05l1.82-.05c1.16,0,2.21-.13,3.13-.19s1.71-.16,2.35-.26l1.49-.18A1.79,1.79,0,0,1,212.26,326Z" transform="translate(-23.43 10.29)" style="fill:#fff"/><path d="M619.37,247.25,652.68,244l3.45,35.29-33.3,3.26,5.73,58.64-43.8,4.29L579,286.83,465.9,297.9l-3.71-26.73L557.54,82.08l45.25-4.42ZM504.8,258.46l70.77-6.92-10.46-107-1.12-.26-2.86,8.14Z" transform="translate(-23.43 10.29)" style="fill:#111827"/><g style="opacity:0.4"><path d="M619.37,247.25,652.68,244l3.45,35.29-33.3,3.26,5.73,58.64-43.8,4.29L579,286.83,465.9,297.9l-3.71-26.73L557.54,82.08l45.25-4.42ZM504.8,258.46l70.77-6.92-10.46-107-1.12-.26-2.86,8.14Z" transform="translate(-23.43 10.29)" style="fill:#111827"/></g><path d="M647.23,244.53l33.3-3.26,3.45,35.3-33.3,3.26,5.73,58.64-43.8,4.28-5.73-58.64L493.75,295.17,490,268.45,585.39,79.36l45.25-4.43ZM532.65,255.74l70.77-6.93L593,141.84l-1.12-.25L589,149.72Z" transform="translate(-23.43 10.29)" style="fill:#162135"/><path d="M491.32,273.45a6,6,0,0,1-1,.75c-.66.46-1.61,1.1-2.8,1.88-2.39,1.56-5.71,3.66-9.44,5.9s-7.14,4.19-9.64,5.56c-1.25.68-2.26,1.23-3,1.59a6.08,6.08,0,0,1-1.13.52,5.63,5.63,0,0,1,1-.7l2.89-1.73,9.55-5.69,9.51-5.76,2.89-1.74A5.67,5.67,0,0,1,491.32,273.45Z" transform="translate(-23.43 10.29)" style="fill:#e8505b"/><path d="M503.22,241.51a9.81,9.81,0,0,1-1.38,1c-.91.62-2.23,1.48-3.88,2.54-3.3,2.11-7.91,5-13,8s-9.8,5.8-13.21,7.72c-1.71,1-3.1,1.73-4.06,2.24a10.88,10.88,0,0,1-1.54.75,11.62,11.62,0,0,1,1.44-.92l4-2.39,13.13-7.85,13.1-7.9,4-2.4A11,11,0,0,1,503.22,241.51Z" transform="translate(-23.43 10.29)" style="fill:#e8505b"/><path d="M519.14,212.28a11.4,11.4,0,0,1-1.45,1c-1,.62-2.34,1.5-4.07,2.57-3.46,2.13-8.28,5-13.64,8.12s-10.25,5.87-13.82,7.81c-1.78,1-3.23,1.75-4.24,2.27a12.41,12.41,0,0,1-1.6.75,11.74,11.74,0,0,1,1.5-.93l4.16-2.41,13.74-7.94,13.71-8,4.15-2.42A11.76,11.76,0,0,1,519.14,212.28Z" transform="translate(-23.43 10.29)" style="fill:#e8505b"/><path d="M602.27,231.62a5.28,5.28,0,0,1-1,.73c-.66.45-1.62,1.07-2.82,1.83-2.39,1.52-5.73,3.56-9.48,5.74s-7.17,4.06-9.68,5.38c-1.25.67-2.27,1.19-3,1.54a5.33,5.33,0,0,1-1.13.5,5.43,5.43,0,0,1,1-.67l2.9-1.69,9.6-5.51,9.55-5.6,2.9-1.69A5.93,5.93,0,0,1,602.27,231.62Z" transform="translate(-23.43 10.29)" style="fill:#e8505b"/><path d="M606.8,286.47a5.43,5.43,0,0,1-1,.72c-.63.44-1.56,1.06-2.72,1.82-2.31,1.5-5.54,3.53-9.17,5.69s-6.94,4-9.37,5.34c-1.21.66-2.2,1.18-2.89,1.53a4.47,4.47,0,0,1-1.1.49,6.52,6.52,0,0,1,1-.67l2.81-1.67,9.29-5.47,9.24-5.55,2.8-1.68A5.54,5.54,0,0,1,606.8,286.47Z" transform="translate(-23.43 10.29)" style="fill:#e8505b"/><path d="M609.05,305.59a4.64,4.64,0,0,1-1,.73c-.63.44-1.56,1.06-2.72,1.82-2.31,1.5-5.54,3.53-9.17,5.69s-6.94,4-9.37,5.34c-1.21.66-2.2,1.18-2.89,1.53a5,5,0,0,1-1.1.49,5.72,5.72,0,0,1,1-.67l2.81-1.67,9.29-5.47,9.24-5.56,2.8-1.67A5.32,5.32,0,0,1,609.05,305.59Z" transform="translate(-23.43 10.29)" style="fill:#e8505b"/><path d="M611.3,324.72a5.12,5.12,0,0,1-1,.73c-.63.44-1.56,1.06-2.72,1.82-2.31,1.5-5.55,3.53-9.17,5.69s-6.94,4-9.37,5.34c-1.21.66-2.2,1.18-2.89,1.53a5,5,0,0,1-1.1.49,5.72,5.72,0,0,1,1-.67L588.9,338l9.29-5.47,9.24-5.56,2.8-1.67A5.32,5.32,0,0,1,611.3,324.72Z" transform="translate(-23.43 10.29)" style="fill:#e8505b"/><path d="M599.93,211.41a5.78,5.78,0,0,1-1,.73c-.66.44-1.62,1.07-2.82,1.83-2.4,1.52-5.74,3.56-9.48,5.73s-7.18,4.06-9.68,5.39c-1.26.66-2.28,1.19-3,1.54a5.78,5.78,0,0,1-1.13.5,5.71,5.71,0,0,1,1-.68l2.91-1.68,9.6-5.52,9.55-5.6,2.9-1.68A5.59,5.59,0,0,1,599.93,211.41Z" transform="translate(-23.43 10.29)" style="fill:#e8505b"/><path d="M597.58,191.19a5.54,5.54,0,0,1-1,.74c-.66.44-1.62,1.07-2.82,1.82-2.39,1.52-5.74,3.57-9.48,5.74s-7.17,4.06-9.68,5.39c-1.25.66-2.27,1.19-3,1.54a6.24,6.24,0,0,1-1.12.5,5.11,5.11,0,0,1,1-.68l2.9-1.68L584,199l9.55-5.6,2.9-1.69A5.59,5.59,0,0,1,597.58,191.19Z" transform="translate(-23.43 10.29)" style="fill:#e8505b"/><path d="M595.24,171a5,5,0,0,1-1,.7c-.62.43-1.54,1-2.68,1.75-2.28,1.45-5.46,3.4-9,5.47s-6.84,3.87-9.23,5.13c-1.2.63-2.17,1.13-2.85,1.46a5.37,5.37,0,0,1-1.08.47,5.51,5.51,0,0,1,1-.65l2.77-1.61c2.44-1.4,5.63-3.22,9.15-5.25l9.09-5.33,2.77-1.61A5.19,5.19,0,0,1,595.24,171Z" transform="translate(-23.43 10.29)" style="fill:#e8505b"/><path d="M594.84,151.84a29.14,29.14,0,0,1-4.66,2.82,29.89,29.89,0,0,1-4.91,2.36,27.78,27.78,0,0,1,4.66-2.82A28.14,28.14,0,0,1,594.84,151.84Z" transform="translate(-23.43 10.29)" style="fill:#e8505b"/><path d="M534.88,182.08a11.4,11.4,0,0,1-1.45,1c-.95.62-2.34,1.5-4.07,2.57-3.45,2.13-8.27,5-13.63,8.12s-10.25,5.87-13.82,7.81c-1.79,1-3.24,1.75-4.25,2.27a11.7,11.7,0,0,1-1.6.75,12.78,12.78,0,0,1,1.5-.93l4.17-2.41,13.74-7.94,13.7-8,4.16-2.42A11.38,11.38,0,0,1,534.88,182.08Z" transform="translate(-23.43 10.29)" style="fill:#e8505b"/><path d="M550.63,151.88a11.4,11.4,0,0,1-1.45,1c-.95.62-2.34,1.5-4.07,2.57-3.46,2.13-8.28,5-13.64,8.12s-10.25,5.87-13.82,7.81c-1.78,1-3.23,1.75-4.24,2.27a12.41,12.41,0,0,1-1.6.75,11.74,11.74,0,0,1,1.5-.93l4.16-2.41,13.74-7.94,13.71-8,4.15-2.42A11.76,11.76,0,0,1,550.63,151.88Z" transform="translate(-23.43 10.29)" style="fill:#e8505b"/><path d="M564.88,121.89a10.71,10.71,0,0,1-1.44,1c-1,.62-2.35,1.5-4.08,2.57-3.45,2.13-8.27,5-13.63,8.12s-10.25,5.87-13.82,7.82c-1.78,1-3.24,1.74-4.25,2.26a9.85,9.85,0,0,1-1.59.75,10.85,10.85,0,0,1,1.5-.93l4.16-2.41,13.74-7.94,13.7-8,4.16-2.42A12.15,12.15,0,0,1,564.88,121.89Z" transform="translate(-23.43 10.29)" style="fill:#e8505b"/><path d="M580,92.85a13.14,13.14,0,0,1-1.45,1c-1,.62-2.34,1.5-4.07,2.56-3.46,2.14-8.28,5-13.64,8.13s-10.25,5.86-13.82,7.81c-1.78,1-3.23,1.74-4.25,2.26a12.21,12.21,0,0,1-1.59.76,11,11,0,0,1,1.5-.94l4.16-2.4,13.74-7.94,13.71-8,4.15-2.43A11.06,11.06,0,0,1,580,92.85Z" transform="translate(-23.43 10.29)" style="fill:#e8505b"/><path d="M635.87,126a4.09,4.09,0,0,1-.48.74,20.75,20.75,0,0,1-1.55,2,31.58,31.58,0,0,1-7,6.06,34.08,34.08,0,0,1-12.8,4.9,31.74,31.74,0,0,1-8.13.24,41.22,41.22,0,0,1-8.53-1.88c-5.69-1.83-10.85-4.22-15.78-5.69a34,34,0,0,0-13.45-1.55,19.52,19.52,0,0,0-8.61,2.91,15.67,15.67,0,0,0-2,1.54,3.88,3.88,0,0,1-.67.56,7.65,7.65,0,0,1,.6-.64,13.46,13.46,0,0,1,1.93-1.63,19.12,19.12,0,0,1,8.68-3.1,33.7,33.7,0,0,1,13.62,1.45c5,1.46,10.16,3.84,15.81,5.66a41.93,41.93,0,0,0,8.42,1.86,30.86,30.86,0,0,0,8-.21,34.17,34.17,0,0,0,12.67-4.73,33.43,33.43,0,0,0,7-5.88c.74-.79,1.26-1.47,1.61-1.92A7.89,7.89,0,0,1,635.87,126Z" transform="translate(-23.43 10.29)" style="fill:#fff"/><path d="M615.13,79a8.08,8.08,0,0,1-1.15.91c-.76.57-1.91,1.32-3.36,2.19a52.89,52.89,0,0,1-5.26,2.77,60.63,60.63,0,0,1-6.79,2.62,62.34,62.34,0,0,1-7.08,1.72,54.56,54.56,0,0,1-5.9.72,40,40,0,0,1-4,.1,7.08,7.08,0,0,1-1.46-.09,7.81,7.81,0,0,1,1.46-.11c.94,0,2.3-.11,4-.27s3.66-.42,5.84-.82a71,71,0,0,0,7-1.75,68.62,68.62,0,0,0,6.76-2.55c2-.92,3.81-1.82,5.27-2.65s2.63-1.53,3.42-2A8.51,8.51,0,0,1,615.13,79Z" transform="translate(-23.43 10.29)" style="fill:#fff"/><path d="M560.46,199a7.07,7.07,0,0,1-1-.87l-2.74-2.46a113.82,113.82,0,0,0-9.52-7.49,30.45,30.45,0,0,0-5.77-3.25,15.7,15.7,0,0,0-5.22-1.22,14.14,14.14,0,0,0-4.91.66s.1-.08.3-.18a7.6,7.6,0,0,1,.94-.36,11.2,11.2,0,0,1,3.68-.49,15.63,15.63,0,0,1,5.39,1.14,29.61,29.61,0,0,1,5.88,3.27,89,89,0,0,1,9.47,7.65c1.15,1.06,2,2,2.64,2.58A6.37,6.37,0,0,1,560.46,199Z" transform="translate(-23.43 10.29)" style="fill:#fff"/><path d="M643.68,217.65a1.82,1.82,0,0,1-.34.35c-.24.21-.58.55-1.07.92a28.69,28.69,0,0,1-4.33,2.87,30.65,30.65,0,0,1-32.57-2,28.78,28.78,0,0,1-4-3.37c-.43-.43-.73-.8-.94-1s-.32-.38-.3-.39a17.45,17.45,0,0,1,1.39,1.29,32.69,32.69,0,0,0,4,3.21,31.15,31.15,0,0,0,32.19,2,32.27,32.27,0,0,0,4.38-2.7A16,16,0,0,1,643.68,217.65Z" transform="translate(-23.43 10.29)" style="fill:#fff"/><path d="M681.43,276.23s-.12-.13-.35-.41l-1-1.26A39.72,39.72,0,0,0,676,270l-1.58-1.4-.84-.75-1-.71-2-1.5-2.33-1.43a47.18,47.18,0,0,0-11.78-4.92A45,45,0,0,0,641.1,258a41.8,41.8,0,0,0-16.86,5.22c-5.47,3.1-10.57,7.33-16,11.5a84,84,0,0,1-8.65,5.93,38.22,38.22,0,0,1-10,4.19,34.16,34.16,0,0,1-10.77.87,48.61,48.61,0,0,1-10.3-2,103.76,103.76,0,0,1-18.19-7.8c-5.6-2.89-10.89-5.7-16.07-7.81a53.85,53.85,0,0,0-14.95-4,36.51,36.51,0,0,0-12.7,1,26.93,26.93,0,0,0-8.77,3.95,23.36,23.36,0,0,0-4.49,4.12l-.95,1.27c-.22.29-.34.43-.34.43s.09-.16.29-.46l.92-1.31a22.91,22.91,0,0,1,4.46-4.22,26.78,26.78,0,0,1,8.81-4.06,36.72,36.72,0,0,1,12.81-1,53.58,53.58,0,0,1,15.07,4c5.21,2.1,10.53,4.9,16.13,7.78a103.67,103.67,0,0,0,18.11,7.74,47.9,47.9,0,0,0,10.2,1.93,33.45,33.45,0,0,0,10.61-.86,37.72,37.72,0,0,0,9.82-4.13,83.46,83.46,0,0,0,8.6-5.88c5.44-4.16,10.57-8.4,16.09-11.52a38,38,0,0,1,4.21-2c.72-.3,1.41-.62,2.13-.88l2.16-.68a42.54,42.54,0,0,1,8.56-1.62A45.4,45.4,0,0,1,656.58,259a47.18,47.18,0,0,1,11.84,5l2.33,1.46,2,1.53,1,.71c.28.27.57.52.84.77l1.57,1.42a37.67,37.67,0,0,1,4,4.62l.94,1.3C681.34,276.08,681.43,276.23,681.43,276.23Z" transform="translate(-23.43 10.29)" style="fill:#fff"/><path d="M657.38,321.84a1.58,1.58,0,0,1-.48.2l-1.42.49a20.71,20.71,0,0,1-2.29.67c-.9.22-1.91.52-3.07.71l-1.8.34c-.63.11-1.29.17-2,.26-1.37.21-2.84.27-4.38.37a59.51,59.51,0,0,1-10-.51,60.48,60.48,0,0,1-9.78-2.33c-1.46-.53-2.85-1-4.1-1.59-.63-.27-1.25-.52-1.82-.8l-1.63-.83c-1.06-.51-2-1.08-2.75-1.55a21.88,21.88,0,0,1-2-1.28l-1.22-.87c-.28-.2-.42-.31-.41-.33a2.29,2.29,0,0,1,.47.25l1.27.78c.55.35,1.23.77,2,1.2s1.71,1,2.77,1.47l1.64.79c.57.28,1.19.51,1.82.78,1.25.55,2.63,1,4.08,1.52A57.12,57.12,0,0,0,642,324.4c1.53-.09,3-.13,4.35-.32.67-.08,1.33-.13,2-.23l1.79-.3c1.16-.16,2.17-.44,3.07-.63s1.67-.4,2.3-.58l1.45-.4A2,2,0,0,1,657.38,321.84Z" transform="translate(-23.43 10.29)" style="fill:#fff"/><path d="M449.14,175.38l-7-1.1-43.37-14L373.39,153a27.3,27.3,0,0,0-21.94,1.5c-12,6.11-45.06,36.88-45.06,36.88l23.81,24.55L319,265.57c12.55,35.68,37.12,39.77,37.12,39.77a87.07,87.07,0,0,0,35.2-5.82c22.82-8.7,46.77-29.09,49.77-37.86,1.8-5.26,3.29-16.32,4.47-28.81l36.12-14.72,9.79-50Z" transform="translate(-23.43 10.29)" style="fill:#455a64"/><path d="M396.38,263.81s-.11.13-.35.31-.59.48-1.08.8a24.7,24.7,0,0,1-4.34,2.33,26.47,26.47,0,0,1-30-6.54,24.36,24.36,0,0,1-3-3.93c-.31-.49-.5-.91-.65-1.17s-.21-.42-.19-.43a15.67,15.67,0,0,1,1,1.49,28,28,0,0,0,3.07,3.78,26.8,26.8,0,0,0,29.56,6.46,29,29,0,0,0,4.37-2.16A16.37,16.37,0,0,1,396.38,263.81Z" transform="translate(-23.43 10.29)" style="fill:#263238"/><path d="M382.66,162.35a.75.75,0,0,1,.08.24c.05.19.1.42.18.71.15.62.36,1.55.61,2.74A66.94,66.94,0,0,1,385,176.27a32.43,32.43,0,0,1-.41,7.15,23.18,23.18,0,0,1-2.85,7.7,30.53,30.53,0,0,1-5.93,6.87c-2.35,2.1-5,4-7.6,6.06-5.64,4.23-11.13,8.06-16,11.54s-9.23,6.6-12.69,9.21l-.12.09-.1-.09a76.53,76.53,0,0,1-7-6.25,17.94,17.94,0,0,1-1.62-1.92,4.94,4.94,0,0,1-.36-.54.92.92,0,0,1-.1-.2s.19.24.54.68a21.22,21.22,0,0,0,1.68,1.85,86.16,86.16,0,0,0,7,6.11h-.22c3.43-2.67,7.74-5.84,12.63-9.33s10.37-7.34,16-11.57c2.65-2,5.25-3.95,7.58-6a30.22,30.22,0,0,0,5.86-6.74,22.56,22.56,0,0,0,2.83-7.53,32.28,32.28,0,0,0,.47-7.05,72.62,72.62,0,0,0-1.26-10.21c-.22-1.17-.39-2.09-.52-2.76-.05-.29-.09-.52-.12-.72A.77.77,0,0,1,382.66,162.35Z" transform="translate(-23.43 10.29)" style="fill:#263238"/><path d="M571,184.87c10.16-8.71,13.6-24.37,8-36.53l-14.3-1.48a20.41,20.41,0,0,0,10.4-20.58A27.31,27.31,0,0,1,543.86,132c-6.69-3.3-12.1-9.45-19.44-10.74-6.66-1.17-13.21,1.95-19.59,4.22s-14.1,3.51-19.38-.71c-4.19-3.36-5.48-9.23-5.21-14.58s1.82-10.58,2.15-15.94A36.16,36.16,0,0,0,470.8,66.07a27.46,27.46,0,0,0-43.11-13.72c-3.13,2.43-5.77,5.55-9.32,7.3-4,2-8.67,2-13,3.05s-8.89,3.94-9.35,8.39l-1.75,9.11a20.22,20.22,0,0,1-1,1.92c-3.69,6.46-11.23,10.72-12.87,18-.93,4.07.22,8.47-1.15,12.41-1.81,5.19-7.41,8.11-10,12.94-3.58,6.64-1.15,18.27,4.58,23.17s17.54,10.11,24.92,11.67c2-7.67,3.77-15.86,5.48-24.26,3,2.89,6.16,5.65,9.3,8.37,8.22,7.14,16.61,14.39,22.31,23.67,10.83,17.62,11,41,24.65,56.53,2.67,3.05,5.92,5.77,9.8,6.94s8.48.56,11.35-2.31c3.39-3.38,3.82-9.08,7.57-12,5-4,12.27-.8,17.62,2.63,3.88,2.48,7.75,5.1,12.15,6.46s9.51,1.27,13.25-1.41,5.38-8.4,2.68-12.13c-1.08-1.49-2.69-2.53-3.76-4s-1.38-3.87.08-5c1.62-1.23,3.89,0,5.64,1a33.52,33.52,0,0,0,48.73-18.13A27.82,27.82,0,0,1,571,184.87Z" transform="translate(-23.43 10.29)" style="fill:#263238"/><path d="M562.08,106.39a12,12,0,0,1,1.29,1.1,15.17,15.17,0,0,1,3,3.9,11.12,11.12,0,0,1,1.1,3.37,8,8,0,0,1-3.56,7.91,6,6,0,0,1-2.52.9,5.77,5.77,0,0,1-2.8-.4c-3.72-1.52-5.58-5.8-9.59-7.72-3.91-2.07-8.91-2.21-13.72-1.11s-9.48,3.71-14.21,6.37-9.76,5.51-15.55,6.5a21.64,21.64,0,0,1-8.6-.06,16.27,16.27,0,0,1-4-1.48,15.3,15.3,0,0,1-3.36-2.48,19.1,19.1,0,0,1-4.31-6.82,31.2,31.2,0,0,1-1.76-7.52c-.53-5-.11-9.79-.06-14.23a41.5,41.5,0,0,0-1.22-12.22,27.71,27.71,0,0,0-1.9-5,28.32,28.32,0,0,0-2.43-4.12,30.91,30.91,0,0,0-5.11-5.71,32.49,32.49,0,0,0-3.91-2.88L467.74,64a1.85,1.85,0,0,1-.36-.23,2.2,2.2,0,0,1,.39.19l1.11.6a29.18,29.18,0,0,1,4,2.82,30.25,30.25,0,0,1,5.22,5.69,28.28,28.28,0,0,1,2.48,4.15,27.93,27.93,0,0,1,2,5,41.92,41.92,0,0,1,1.29,12.32c0,4.46-.43,9.22.11,14.17a30,30,0,0,0,1.75,7.4,18.46,18.46,0,0,0,4.2,6.63,14.49,14.49,0,0,0,3.24,2.4,16.19,16.19,0,0,0,3.85,1.43,21.57,21.57,0,0,0,8.4,0c5.68-1,10.66-3.79,15.39-6.43s9.4-5.27,14.36-6.4a24.71,24.71,0,0,1,7.32-.61,19.21,19.21,0,0,1,3.5.56,16.49,16.49,0,0,1,3.2,1.25c4.14,2,6,6.34,9.52,7.76a5.35,5.35,0,0,0,5-.45,7.73,7.73,0,0,0,3.49-7.59,11.09,11.09,0,0,0-1-3.31,15.71,15.71,0,0,0-2.84-3.91c-.39-.4-.7-.69-.91-.88A2,2,0,0,1,562.08,106.39Z" transform="translate(-23.43 10.29)" style="fill:#263238"/><path d="M398.61,164.11a4,4,0,0,1-.08-.45,7.79,7.79,0,0,0-.27-1.31,11.08,11.08,0,0,0-2.46-4.46,19,19,0,0,0-6.63-4.61c-2.9-1.33-6.49-2-10.43-2.72s-8.41-1.58-12.43-4.26a18.45,18.45,0,0,1-2.94-28.11c4.14-4.25,10-6.36,14.78-10.09a18.69,18.69,0,0,0,3.14-3.21,13.27,13.27,0,0,0,1.92-4c.8-2.84.73-5.81,1-8.7A19.75,19.75,0,0,1,385,88a10.65,10.65,0,0,1,2.11-3.74,15,15,0,0,1,7.15-4c2.57-.75,5.13-1.21,7.54-1.88a20.59,20.59,0,0,0,6.58-2.94,25.39,25.39,0,0,0,4.94-4.62,56.55,56.55,0,0,0,3.73-5.07c2.2-3.34,4.09-6.47,6.11-9A28.68,28.68,0,0,1,429,51a16.08,16.08,0,0,1,4.61-2.37,11.2,11.2,0,0,1,1.75-.44s-.61.15-1.72.54a16.9,16.9,0,0,0-4.52,2.43A29.16,29.16,0,0,0,423.4,57c-2,2.5-3.84,5.62-6,9a54.43,54.43,0,0,1-3.72,5.11,25.35,25.35,0,0,1-5,4.72,21,21,0,0,1-6.71,3c-2.43.68-5,1.16-7.52,1.9a14.53,14.53,0,0,0-6.92,3.85,10.18,10.18,0,0,0-2,3.56,19.22,19.22,0,0,0-.77,4.16c-.27,2.86-.19,5.85-1,8.8a13.56,13.56,0,0,1-2,4.12,19.15,19.15,0,0,1-3.24,3.31,67.94,67.94,0,0,1-7.69,4.88,33.58,33.58,0,0,0-7,5.15,18,18,0,0,0,2.82,27.4c3.9,2.64,8.34,3.47,12.25,4.26s7.55,1.45,10.48,2.81a19.22,19.22,0,0,1,6.67,4.74,11,11,0,0,1,2.4,4.57,7.15,7.15,0,0,1,.22,1.33C398.61,164,398.61,164.11,398.61,164.11Z" transform="translate(-23.43 10.29)" style="fill:#263238"/><path d="M478.45,74.34s-.28,0-.77-.19a21,21,0,0,1-2-.81A26.49,26.49,0,0,1,465,64.15a19.18,19.18,0,0,1-1.1-1.86c-.22-.45-.34-.71-.3-.73s.64.93,1.7,2.38a31.4,31.4,0,0,0,4.76,5.14A31.73,31.73,0,0,0,475.85,73C477.44,73.85,478.48,74.26,478.45,74.34Z" transform="translate(-23.43 10.29)" style="fill:#455a64"/><path d="M511.69,142.55s-.62-.16-1.75-.4a28.66,28.66,0,0,0-4.86-.6,64.74,64.74,0,0,0-7.26.21c-2.74.19-5.76.47-8.95.4A24.31,24.31,0,0,1,480,140.5a15.67,15.67,0,0,1-5.92-4.32,11,11,0,0,1-2.27-4.39,6.73,6.73,0,0,1-.21-1.33,1.29,1.29,0,0,1,0-.47c.06,0,.09.64.41,1.75a11.71,11.71,0,0,0,2.36,4.2,15.69,15.69,0,0,0,5.83,4.12,24.49,24.49,0,0,0,8.65,1.58c3.15.07,6.16-.19,8.9-.36a59,59,0,0,1,7.32-.09A24.42,24.42,0,0,1,510,142c.57.16,1,.3,1.28.41S511.7,142.53,511.69,142.55Z" transform="translate(-23.43 10.29)" style="fill:#455a64"/><path d="M570.63,188l-.29.13a4.62,4.62,0,0,1-.89.29,7,7,0,0,1-3.58-.16,11.48,11.48,0,0,1-4.8-3,19.94,19.94,0,0,1-3.86-6.46c-1.09-2.57-2-5.51-3.79-8.23a21.59,21.59,0,0,0-3.17-3.87,25.38,25.38,0,0,0-4.24-3.21c-6.28-3.78-14.53-5.34-23-4.84s-16.43,2.1-23.8,2.62a47.13,47.13,0,0,1-19.41-2,26.89,26.89,0,0,1-11.12-7,15.34,15.34,0,0,1-1.33-1.59,10.8,10.8,0,0,1-.87-1.25l-.48-.8a1.21,1.21,0,0,1-.15-.28,2.09,2.09,0,0,1,.2.25l.52.77a9.81,9.81,0,0,0,.9,1.21,14.77,14.77,0,0,0,1.36,1.55A27,27,0,0,0,480,158.89a47.18,47.18,0,0,0,19.25,1.88c7.33-.54,15.29-2.21,23.82-2.66s16.85,1.08,23.22,4.95a25.4,25.4,0,0,1,4.31,3.29,21.79,21.79,0,0,1,3.23,4c1.8,2.79,2.7,5.76,3.76,8.32a19.94,19.94,0,0,0,3.73,6.4,11.29,11.29,0,0,0,4.65,3,7.17,7.17,0,0,0,3.5.26C570.23,188.19,570.62,188,570.63,188Z" transform="translate(-23.43 10.29)" style="fill:#455a64"/><path d="M413.34,74.34A7.47,7.47,0,0,0,405.72,81h0l-8.08,84.21c-1.4,11.84,14.09,37.23,26.78,38.63h0c12.81,1.42,14.06-4.79,15.73-16,2.78-18.74,3.7-25.8,3.7-25.69s16.5-.55,22.62-21.18c3-10.26,4.78-27.51,5.75-41.67.87-12.75-5.47-29.36-18.24-29.68Z" transform="translate(-23.43 10.29)" style="fill:#ffbe9d"/><path d="M466.64,110.43a2.71,2.71,0,0,1-3,2.38,2.6,2.6,0,0,1-2.47-2.8,2.73,2.73,0,0,1,3-2.38A2.6,2.6,0,0,1,466.64,110.43Z" transform="translate(-23.43 10.29)" style="fill:#263238"/><path d="M467.78,105c-.31.38-2.47-1-5.4-.79s-5,1.82-5.31,1.49c-.17-.15.13-.81,1-1.56a7.5,7.5,0,0,1,4.22-1.63,7.2,7.2,0,0,1,4.33,1.08C467.59,104.19,467.94,104.81,467.78,105Z" transform="translate(-23.43 10.29)" style="fill:#263238"/><path d="M440.91,112c-.35.35-2.37-1.24-5.3-1.31s-5.12,1.33-5.43,1c-.15-.16.21-.8,1.17-1.45a7.48,7.48,0,0,1,4.35-1.21,7.18,7.18,0,0,1,4.21,1.49C440.79,111.15,441.08,111.8,440.91,112Z" transform="translate(-23.43 10.29)" style="fill:#263238"/><path d="M446.37,127.44c0-.17,1.86-.24,4.84-.23.75,0,1.47,0,1.66-.53a3.8,3.8,0,0,0-.2-2.26c-.46-1.89-.95-3.87-1.45-6-2-8.45-3.33-15.36-3-15.43s2.23,6.71,4.22,15.16c.47,2.08.93,4.06,1.36,6a4.38,4.38,0,0,1,0,3,1.86,1.86,0,0,1-1.37.92,4.59,4.59,0,0,1-1.28,0C448.19,127.83,446.36,127.6,446.37,127.44Z" transform="translate(-23.43 10.29)" style="fill:#263238"/><path d="M443.85,162.11a54,54,0,0,1-27.23-11.24s5.21,15.42,26.56,16.23Z" transform="translate(-23.43 10.29)" style="fill:#eb996e"/><path d="M441.32,106.94c-.46.71-3.23-.32-6.67-.7s-6.37-.11-6.65-.91c-.13-.38.52-1,1.79-1.49a11,11,0,0,1,5.21-.56,11.19,11.19,0,0,1,4.94,1.78C441.05,105.85,441.53,106.6,441.32,106.94Z" transform="translate(-23.43 10.29)" style="fill:#263238"/><path d="M467.35,101.05c-.48.69-2.53.11-5,.2s-4.46.68-5,0c-.22-.32.07-1,.93-1.68a7.17,7.17,0,0,1,8-.16C467.25,100.05,467.56,100.72,467.35,101.05Z" transform="translate(-23.43 10.29)" style="fill:#263238"/><path d="M439.29,132.75a6.24,6.24,0,0,1,4.58-1A3.59,3.59,0,0,1,446,132.9a4.48,4.48,0,0,1,.74,3.06,5.84,5.84,0,0,1-.28,1.9,2.5,2.5,0,0,1-1.22,1.43,3.43,3.43,0,0,1-2,.1,7.52,7.52,0,0,1-3.09-1.12,3.81,3.81,0,0,1-1.72-2.7,2.59,2.59,0,0,1,1.54-2.66" transform="translate(-23.43 10.29)" style="fill:#eb996e"/><path d="M447.18,139.17c-.21.08-.6-.56-1.3-1.43a10.69,10.69,0,0,0-7.26-4.14c-1.11-.16-1.86-.16-1.9-.39s.65-.59,1.92-.72a8.41,8.41,0,0,1,8.18,4.67C447.36,138.31,447.37,139.11,447.18,139.17Z" transform="translate(-23.43 10.29)" style="fill:#263238"/><path d="M396.51,159.4c6.95-1.38,12.3-7.36,14.7-14s2.26-13.95,1.63-21a3.41,3.41,0,0,0-.95-2.48c-1.06-.81-2.56-.15-3.7.54a116.88,116.88,0,0,0-12.57,8.84c-3.72,3-7.41,6.45-8.83,11-2.19,7,2.44,15.34,9.53,17.18" transform="translate(-23.43 10.29)" style="fill:#263238"/><path d="M556.26,157.77l-32.78-52.68-9.05-18.54s-2.89-3.83-5.89-7.1c-4.93-5.37-9.79-1.2-9.79-1.2a3.32,3.32,0,0,0-3.29-2,5.59,5.59,0,0,0-4.53,2.31s-1.34-1.49-5.06-1.72a3.9,3.9,0,0,0-2.36.76c-1.21-1.07-3.45-2.61-5.6-1.83C476.23,76.35,466,84.1,463.53,88c-1.24,1.93,1.06,4.43,4.16,3.26a26.28,26.28,0,0,0,3.72-1.51,10.17,10.17,0,0,0,2.52-2s-2.57,4.5,0,5.29a5.86,5.86,0,0,0,4.82-1.17c1-.82,2.11-1.89,3.18-2.94l-.13.18c-1.42,2.1,2.29,5.21,4.08,4a25,25,0,0,0,2.39-1.9c4.16,3-1.61,6.89-4.05,6.69a75.93,75.93,0,0,0-11.28,0c-2.13.17-4,.68-5.16,1.85-1.38,1.42.07,4.4,2,4.7,3.59.56,8.17,1.36,12.93,2.58,5.6,1.44,20.27,6.21,20.27,6.21l1.43,1.16,19.93,48.61-34.13,7.23-7.61,43.24,61.6-16.71C558.09,189.44,564.66,171,556.26,157.77Z" transform="translate(-23.43 10.29)" style="fill:#ffbe9d"/><path d="M503,113.13a4.38,4.38,0,0,1-.79-.19l-2.21-.63-8.1-2.41-5.59-1.69c-2-.61-4.15-1.26-6.44-1.84a61.62,61.62,0,0,0-7.21-1.49,12.58,12.58,0,0,1-3.92-.7,2.79,2.79,0,0,1-.88-.66,1.55,1.55,0,0,1-.3-.54l-.07-.53a4.94,4.94,0,0,1,.13-2.12A2.94,2.94,0,0,1,469,98.69a10.85,10.85,0,0,1,1.91-.76,12.88,12.88,0,0,1,4-.49c2.59,0,5.05.4,7.39.3a23.18,23.18,0,0,0,3.39-.33c1.09-.2,2.13-.48,3.15-.74a16.83,16.83,0,0,1,5.83-.75,16.06,16.06,0,0,1,4.7,1.2,28.58,28.58,0,0,1,3.27,1.61c.88.49,1.54.9,2,1.17a3.67,3.67,0,0,1,.67.46,4.86,4.86,0,0,1-.72-.37l-2-1.08a33.27,33.27,0,0,0-3.29-1.52,15.91,15.91,0,0,0-4.62-1.1,16.82,16.82,0,0,0-5.69.79c-1,.27-2.06.57-3.18.78a22.77,22.77,0,0,1-3.46.36c-2.38.11-4.87-.24-7.41-.27a12.52,12.52,0,0,0-3.79.47c-1.22.4-2.62.84-3,2.07a4.66,4.66,0,0,0-.11,1.9l.07.46a.9.9,0,0,0,.19.34,2.21,2.21,0,0,0,.71.52,12.71,12.71,0,0,0,3.75.67,59.15,59.15,0,0,1,7.28,1.53c2.29.59,4.43,1.25,6.43,1.89l5.57,1.75,8.06,2.57,2.19.72A4.54,4.54,0,0,1,503,113.13Z" transform="translate(-23.43 10.29)" style="fill:#eb996e"/><path d="M477.72,75.82c0,.08-1.54,1-3.9,2.8A39.52,39.52,0,0,0,469.9,82c-1.4,1.37-2.88,3-4.61,4.45a4.85,4.85,0,0,0-1.85,2.47,1.75,1.75,0,0,0,1.21,2.14,5.14,5.14,0,0,0,2.64.05,12.64,12.64,0,0,0,2.29-.65A16.25,16.25,0,0,0,473.64,88a4.25,4.25,0,0,1-.9.94,12,12,0,0,1-3,1.87,13.09,13.09,0,0,1-2.36.74,5.59,5.59,0,0,1-2.87,0,2.23,2.23,0,0,1-1.56-2.7,5.19,5.19,0,0,1,2-2.76c1.71-1.47,3.18-3,4.61-4.4a35.39,35.39,0,0,1,4-3.35c1.21-.87,2.25-1.49,3-1.91A6,6,0,0,1,477.72,75.82Z" transform="translate(-23.43 10.29)" style="fill:#eb996e"/><path d="M490.22,80a11.68,11.68,0,0,1-1.15,1.38c-.84.91-1.95,2.13-3.29,3.62l-4.93,5.32a11.89,11.89,0,0,1-3.47,2.64,5.17,5.17,0,0,1-2.29.57,3.2,3.2,0,0,1-2.3-.92,2.19,2.19,0,0,1-.55-1.25,3.88,3.88,0,0,1,.14-1.28,7.41,7.41,0,0,1,1.06-2.19h0l0,0c1.76-1.87,3.4-3.63,4.88-5.25s2.94-2.89,4.11-4a8.29,8.29,0,0,1,1.71-1.38,4.05,4.05,0,0,1,1.62-.35c.89-.07,1.41,0,1.36.11a4.12,4.12,0,0,0-1.34.06,4.53,4.53,0,0,0-1.51.4,8.82,8.82,0,0,0-1.61,1.39c-1.14,1.14-2.55,2.47-4,4.06s-3.08,3.42-4.85,5.31l0,0a7,7,0,0,0-1,2,3.21,3.21,0,0,0-.12,1.1,1.74,1.74,0,0,0,.41,1,2.7,2.7,0,0,0,1.93.75,4.86,4.86,0,0,0,2.07-.51A11.63,11.63,0,0,0,480.49,90l5-5.25,3.41-3.5.95-.94A1.78,1.78,0,0,1,490.22,80Z" transform="translate(-23.43 10.29)" style="fill:#eb996e"/><path d="M505.54,84.78c.06,0,0,.31-.39.59a2.12,2.12,0,0,1-3.08-.54c-.23-.38-.24-.66-.17-.68s.19.19.46.45a2.28,2.28,0,0,0,1.22.66,2.35,2.35,0,0,0,1.37-.2C505.29,84.9,505.48,84.73,505.54,84.78Z" transform="translate(-23.43 10.29)" style="fill:#eb996e"/><path d="M506.74,89.37c-.1.09-.86-.66-1.52-1.78a4.31,4.31,0,0,1-.83-2.2c.14,0,.64.85,1.28,1.93S506.86,89.28,506.74,89.37Z" transform="translate(-23.43 10.29)" style="fill:#eb996e"/><path d="M509,107.25a6.72,6.72,0,0,1-.94-2.08,17,17,0,0,1-.82-5.47,17.2,17.2,0,0,1,1-5.44,6.81,6.81,0,0,1,1-2.06,26.83,26.83,0,0,0-1.44,7.51A27,27,0,0,0,509,107.25Z" transform="translate(-23.43 10.29)" style="fill:#eb996e"/><path d="M535.88,176.54c-.1,0-.2-1.06-.72-2.69a16.86,16.86,0,0,0-1.19-2.74,17.72,17.72,0,0,0-2.09-3,17.44,17.44,0,0,0-2.7-2.46,16.29,16.29,0,0,0-2.57-1.53c-1.54-.73-2.59-1-2.57-1.06a2.22,2.22,0,0,1,.75.1,10.94,10.94,0,0,1,2,.63,14.11,14.11,0,0,1,2.7,1.47,16.57,16.57,0,0,1,2.81,2.51,17.07,17.07,0,0,1,2.13,3.11,14.28,14.28,0,0,1,1.11,2.87,11.24,11.24,0,0,1,.37,2A2.48,2.48,0,0,1,535.88,176.54Z" transform="translate(-23.43 10.29)" style="fill:#eb996e"/><path d="M421.5,272.85a14.2,14.2,0,0,0-8.33,1.06c-4.45-2-9.94,1.43-9.94,1.43-1.61-.77-11.31,5.57-11.31,5.57l-12.08,5.7L315.3,238.67l18.3-19L308,193l-30.05,30.9a22.75,22.75,0,0,0-6,14.55,29.6,29.6,0,0,0,16.44,28l76,39a88.6,88.6,0,0,0,17.28-2.69c6.56-1.71,17.78-6.69,17.78-6.69s0,.34,2,4.23c3.61,7,8.9-.55,8.9-.55a14.51,14.51,0,0,0,2.06,3.41c4.56,4.43,7.73-1.52,7.73-1.52s1.38,2.39,5.46.61S425,288.2,425,288.2s1.37,2.67,4-.71S425.87,273.76,421.5,272.85Z" transform="translate(-23.43 10.29)" style="fill:#ffbe9d"/><path d="M412.37,274.53a2.09,2.09,0,0,1,.83-.33,5,5,0,0,1,2.45.08,9.3,9.3,0,0,1,3.24,1.65,13.14,13.14,0,0,1,1.61,1.44,9.14,9.14,0,0,1,1.25,1.95,48.78,48.78,0,0,1,3,7.41c.29,1,.5,1.77.62,2.33a2.53,2.53,0,0,1,.14.88c-.07,0-.44-1.19-1.11-3.1a68.39,68.39,0,0,0-3.07-7.29,9.28,9.28,0,0,0-1.18-1.85,13.17,13.17,0,0,0-1.52-1.39,9.69,9.69,0,0,0-3-1.68A6.66,6.66,0,0,0,412.37,274.53Z" transform="translate(-23.43 10.29)" style="fill:#eb996e"/><path d="M420.13,301.65a5.65,5.65,0,0,1-.56-1.11l-1.41-3.06c-1.19-2.59-2.93-6.12-4.6-10.16a26.9,26.9,0,0,0-2.62-5.46,9,9,0,0,0-3.71-3.1,6.09,6.09,0,0,0-3.21-.57c-.77.1-1.17.31-1.19.26s.08-.07.28-.17A3.19,3.19,0,0,1,404,278a5.84,5.84,0,0,1,3.38.43,9.14,9.14,0,0,1,4,3.16,26,26,0,0,1,2.72,5.54c1.65,4,3.34,7.58,4.44,10.21.56,1.31,1,2.39,1.27,3.14A5.27,5.27,0,0,1,420.13,301.65Z" transform="translate(-23.43 10.29)" style="fill:#eb996e"/><path d="M390.52,286.22a5.23,5.23,0,0,1,1-.57l2.88-1.39c.62-.28,1.27-.61,2-.93A5.66,5.66,0,0,1,399,283a5.45,5.45,0,0,1,2.71,1,8.44,8.44,0,0,1,2,2.37,30.08,30.08,0,0,1,1.4,2.68c.43.87.87,1.69,1.3,2.47.87,1.56,1.69,2.95,2.3,4.16a25,25,0,0,1,1.28,2.95,4.65,4.65,0,0,1,.32,1.14c-.08,0-.62-1.56-1.93-3.92-.64-1.18-1.49-2.54-2.38-4.09-.45-.78-.91-1.61-1.35-2.48s-.86-1.78-1.39-2.64a8.13,8.13,0,0,0-1.84-2.23,5,5,0,0,0-2.46-1,5.19,5.19,0,0,0-2.38.3c-.72.29-1.41.61-2,.87l-2.95,1.23A4.3,4.3,0,0,1,390.52,286.22Z" transform="translate(-23.43 10.29)" style="fill:#eb996e"/><path d="M391.92,280.91a4.07,4.07,0,0,1-.88.56c-.58.33-1.44.79-2.49,1.35-2.12,1.11-5.05,2.63-8.31,4.27s-6.22,3.1-8.38,4.14l-2.57,1.2a3.52,3.52,0,0,1-1,.37,4.19,4.19,0,0,1,.88-.55c.59-.33,1.44-.79,2.5-1.35,2.11-1.12,5.05-2.63,8.31-4.27s6.22-3.11,8.37-4.14c1.08-.52,2-.93,2.57-1.2A3.83,3.83,0,0,1,391.92,280.91Z" transform="translate(-23.43 10.29)" style="fill:#eb996e"/><path d="M316.16,238.77a25.42,25.42,0,0,0-15,1.77,6.92,6.92,0,0,1,2-1.12,19.3,19.3,0,0,1,5.31-1.42,18.93,18.93,0,0,1,5.5.15A6.78,6.78,0,0,1,316.16,238.77Z" transform="translate(-23.43 10.29)" style="fill:#eb996e"/><path d="M458.68,65.55a200.94,200.94,0,0,0-47.52,5c-3.61.83-7.43,1.89-9.87,4.67-2.59,2.94-3,7.14-3.38,11q-.62,7.13-1.24,14.25a32,32,0,0,1-2.28,3.4c-3.76,4.91-8.54,9-12,14.15s-5.31,12-2.53,17.52c1.69,3.34,4.81,5.7,7.09,8.66,3.87,5,5.13,11.52,7.39,17.44s6.34,12,12.57,13.16c3,.57,6.06-.06,9.05.38,4.47.65,8.22,3.58,11.78,6.37s7.41,5.63,11.91,6.08,9.65-2.6,9.74-7.12a10.56,10.56,0,0,1-10.87-.3c-2.62-1.72-4.31-4.52-6.57-6.71-5.52-5.36-14.43-7.06-18.27-13.73-3-5.27-1.83-11.87-.45-17.8,1.19-5.15,2.4-10.72.92-15.66a17.39,17.39,0,0,0,.18-2.4c0-5.26-2-10.9.41-15.55,3.24-6.16,12.58-6.93,15.85-13.07,1.9-3.57,1.24-8.13,3.32-11.6,1.95-3.26,5.86-4.76,9.57-5.57s7.64-1.18,10.92-3.09S460.17,69.05,458.68,65.55Z" transform="translate(-23.43 10.29)" style="fill:#263238"/><path d="M470.8,172.84a1.28,1.28,0,0,1-.15.25l-.49.69a13.9,13.9,0,0,1-2.3,2.33,16.08,16.08,0,0,1-11.37,3.24,14.3,14.3,0,0,1-7.66-3.14c-2.38-1.83-4.5-4.25-7.19-6.19a10.38,10.38,0,0,0-4.58-1.93,10,10,0,0,0-5.1.93,26.07,26.07,0,0,1-5.3,1.83,9.35,9.35,0,0,1-5.69-1,28.68,28.68,0,0,1-4.81-3.19,40.13,40.13,0,0,1-4.22-3.66,13.33,13.33,0,0,1-3-4.53,9.27,9.27,0,0,1-.34-5.2,28.27,28.27,0,0,1,1.51-4.69c.58-1.47,1.08-2.92,1.52-4.34a58.89,58.89,0,0,0,2.5-20c-.07-1.41-.16-2.51-.23-3.25,0-.34-.06-.62-.08-.84a1.07,1.07,0,0,1,0-.29,1,1,0,0,1,.06.28q0,.33.12.84c.11.74.23,1.83.33,3.25a56.34,56.34,0,0,1-.49,12,57.44,57.44,0,0,1-1.8,8.11q-.65,2.15-1.5,4.38a28,28,0,0,0-1.47,4.62,8.77,8.77,0,0,0,.34,4.93,12.73,12.73,0,0,0,2.9,4.34,37.53,37.53,0,0,0,4.17,3.61,27.22,27.22,0,0,0,4.72,3.13,8.73,8.73,0,0,0,5.38,1,25.29,25.29,0,0,0,5.19-1.79,10.53,10.53,0,0,1,5.34-.94,10.75,10.75,0,0,1,4.81,2c2.74,2,4.84,4.43,7.18,6.24a13.84,13.84,0,0,0,7.43,3.11,16,16,0,0,0,11.2-3A18.49,18.49,0,0,0,470.8,172.84Z" transform="translate(-23.43 10.29)" style="fill:#263238"/><path d="M370.89,141a10.07,10.07,0,0,1-.8-1.11,11.12,11.12,0,0,1-1.42-3.64,15.06,15.06,0,0,1,.1-6.18,18.78,18.78,0,0,1,3.46-7.41,34.36,34.36,0,0,1,7.22-6.83c2.87-2.14,6.13-4.12,9.38-6.44a34.58,34.58,0,0,0,8.9-8.65,22.29,22.29,0,0,0,2.7-6c.64-2.14,1.08-4.38,1.6-6.64a35.3,35.3,0,0,1,2-6.58A14.74,14.74,0,0,1,408,76.16,16.48,16.48,0,0,1,413.65,73a26.31,26.31,0,0,1,6.08-1.21,70.58,70.58,0,0,1,11.4.36,52.91,52.91,0,0,0,9.86.13,20.93,20.93,0,0,0,7.72-2.3,15.38,15.38,0,0,0,4.74-3.82,11.41,11.41,0,0,0,1.91-3.35c.29-.84.39-1.3.42-1.29a9.18,9.18,0,0,1-.32,1.33,11,11,0,0,1-1.85,3.44,15.58,15.58,0,0,1-4.76,4A21.1,21.1,0,0,1,441,72.69a53.43,53.43,0,0,1-9.94-.06,70,70,0,0,0-11.32-.32,25.53,25.53,0,0,0-6,1.2,16.16,16.16,0,0,0-5.5,3,14.44,14.44,0,0,0-3.79,5.26,35.44,35.44,0,0,0-2,6.49c-.51,2.25-.95,4.5-1.61,6.67a22.2,22.2,0,0,1-2.77,6.1,34.72,34.72,0,0,1-9,8.76c-3.28,2.32-6.54,4.29-9.41,6.4a34.71,34.71,0,0,0-7.18,6.7,18.79,18.79,0,0,0-3.47,7.25,14.92,14.92,0,0,0-.18,6.08A12.54,12.54,0,0,0,370.89,141Z" transform="translate(-23.43 10.29)" style="fill:#455a64"/><path d="M373.82,146.29a22.44,22.44,0,0,1-3.08-2.95,14.14,14.14,0,0,1-2.67-4.23,7.07,7.07,0,0,1-.45-3.13,6.13,6.13,0,0,1,1.35-3.27c1.61-2,4.3-3.05,7.11-3.65,1.41-.29,2.88-.52,4.36-.88a12.62,12.62,0,0,0,4.26-1.78,10.3,10.3,0,0,0,3.1-3.67,33.21,33.21,0,0,0,1.92-4.77,33.78,33.78,0,0,1,2-5,10.67,10.67,0,0,1,3.75-4.15,18.61,18.61,0,0,1,5.21-2c1.77-.46,3.52-.83,5.17-1.39a16.72,16.72,0,0,0,7.94-5.85,61.22,61.22,0,0,0,4.93-7.7,42.92,42.92,0,0,1,4.49-6.66A17.08,17.08,0,0,1,428.38,81a12.94,12.94,0,0,1,4.79-1.45,9.29,9.29,0,0,1,3.16.26,6,6,0,0,1,1,.37s-.37-.11-1.07-.27a9.58,9.58,0,0,0-3.11-.15,12.89,12.89,0,0,0-4.67,1.5,16.72,16.72,0,0,0-5,4.17,42.85,42.85,0,0,0-4.4,6.63,60.25,60.25,0,0,1-4.92,7.79,21.26,21.26,0,0,1-3.53,3.57,15.14,15.14,0,0,1-4.63,2.46c-1.69.58-3.45,1-5.2,1.41a18.35,18.35,0,0,0-5.06,2,10.18,10.18,0,0,0-3.58,4,33.77,33.77,0,0,0-2,4.93,33,33,0,0,1-2,4.83A10.79,10.79,0,0,1,385,126.8a12.91,12.91,0,0,1-4.42,1.82c-1.51.36-3,.58-4.39.87-2.76.56-5.37,1.59-6.91,3.45A6,6,0,0,0,368,136a6.69,6.69,0,0,0,.4,3,14,14,0,0,0,2.55,4.2,31,31,0,0,0,2.14,2.3l.59.57A1.32,1.32,0,0,1,373.82,146.29Z" transform="translate(-23.43 10.29)" style="fill:#455a64"/><path d="M496.92,81.69a3.74,3.74,0,0,1-.52.78c-.36.47-.9,1.15-1.58,2-1.36,1.63-3.32,3.84-5.62,6.14-1.14,1.12-2.21,2.38-3.68,2.84a3.24,3.24,0,0,1-2.11,0,2.66,2.66,0,0,1-1.36-1.25,4.09,4.09,0,0,1-.38-2.54,2.48,2.48,0,0,1,.24-.9,5.33,5.33,0,0,1,0,.92,4.1,4.1,0,0,0,.49,2.34,2.23,2.23,0,0,0,1.19,1,2.75,2.75,0,0,0,1.81,0c1.27-.41,2.31-1.61,3.46-2.74,2.29-2.3,4.28-4.46,5.71-6A26.63,26.63,0,0,1,496.92,81.69Z" transform="translate(-23.43 10.29)" style="fill:#eb996e"/><path d="M504.55,81.7a3.65,3.65,0,0,1-.6.78c-.41.47-1,1.15-1.78,2l-2.69,2.91-1.6,1.7A13.13,13.13,0,0,1,496,90.82a4.68,4.68,0,0,1-2.43,1,2.5,2.5,0,0,1-2.27-1,1.87,1.87,0,0,1-.37-1.16,2.19,2.19,0,0,1,.34-1.07c.37-.6.75-1.06,1.07-1.52.67-.91,1.22-1.64,1.61-2.14a3.45,3.45,0,0,1,.65-.74,4.57,4.57,0,0,1-.49.86c-.33.53-.83,1.29-1.46,2.23-.31.47-.69,1-1,1.52a1.5,1.5,0,0,0,.05,1.74,2,2,0,0,0,1.84.76,4.33,4.33,0,0,0,2.17-.87,14.39,14.39,0,0,0,1.81-1.67l1.63-1.68c1-1,1.94-2,2.77-2.84s1.44-1.44,1.9-1.87S504.53,81.67,504.55,81.7Z" transform="translate(-23.43 10.29)" style="fill:#eb996e"/><path d="M609,387.84a12.67,12.67,0,0,1,20.58-3.57c-1.94,3.47-5.44,5.78-9.2,7.08A10,10,0,0,1,609,387.84" transform="translate(-23.43 10.29)" style="fill:#e8505b"/><path d="M601.86,389.48a12.8,12.8,0,0,1,2.88-.89c1.8-.45,4.32-.94,7.12-1.4s5.33-.81,7.17-1a15,15,0,0,1,3-.23,19,19,0,0,1-2.94.59l-7.15,1.17c-2.79.46-5.31.9-7.12,1.25A24.35,24.35,0,0,1,601.86,389.48Z" transform="translate(-23.43 10.29)" style="fill:#263238"/><path d="M251.54,324.53a16.66,16.66,0,0,1-3,27.69c-3.68-9.41-5.09-19.54,3-27.69" transform="translate(-23.43 10.29)" style="fill:#e8505b"/><path d="M265.45,331.75a21.55,21.55,0,0,0,31.15,18.11c-7-11-16.47-20.27-31.15-18.11" transform="translate(-23.43 10.29)" style="fill:#e8505b"/><path d="M233.58,297a3.08,3.08,0,0,1,.46.5l1.25,1.49c1.07,1.31,2.62,3.2,4.58,5.49,3.9,4.61,9.41,10.86,15.89,17.39,3.26,3.26,6.45,6.27,9.41,8.93s5.76,4.93,8.16,6.75a60.28,60.28,0,0,0,5.89,4c1.44.86,2.31,1.22,2.29,1.28a3.85,3.85,0,0,1-.64-.25,15.27,15.27,0,0,1-1.75-.85,53.25,53.25,0,0,1-6-3.89c-2.44-1.8-5.24-4.06-8.25-6.69s-6.2-5.66-9.46-8.92c-6.5-6.54-12-12.85-15.82-17.52-1.92-2.33-3.43-4.26-4.45-5.6L234,297.54A3.94,3.94,0,0,1,233.58,297Z" transform="translate(-23.43 10.29)" style="fill:#263238"/><path d="M250.76,338.76c-.08,0,.25-1.41.53-3.68a39.69,39.69,0,0,0,.1-8.92,40.15,40.15,0,0,0-1.93-8.7c-.75-2.16-1.36-3.45-1.28-3.49a3.69,3.69,0,0,1,.51.87,22.68,22.68,0,0,1,1.11,2.49,34.34,34.34,0,0,1,2.11,8.78,34.85,34.85,0,0,1-.25,9,24.68,24.68,0,0,1-.57,2.67A3.51,3.51,0,0,1,250.76,338.76Z" transform="translate(-23.43 10.29)" style="fill:#263238"/><path d="M692.08,136.38a12.66,12.66,0,0,1,6.62-19.81A16.38,16.38,0,0,1,700.56,128a10,10,0,0,1-8.48,8.35" transform="translate(-23.43 10.29)" style="fill:#e8505b"/><path d="M690.15,143.41a12.86,12.86,0,0,1,.58-2.95c.47-1.8,1.23-4.25,2.15-6.93s1.82-5.08,2.5-6.8A15.23,15.23,0,0,1,696.6,124a17.74,17.74,0,0,1-.88,2.87c-.65,1.91-1.46,4.25-2.35,6.85s-1.73,5.1-2.29,6.86A24.65,24.65,0,0,1,690.15,143.41Z" transform="translate(-23.43 10.29)" style="fill:#263238"/><path d="M648,210.78A24.5,24.5,0,0,1,674.21,180c1.39,7.56-1,15.32-4.94,21.89-4.71,7.75-14.07,11-21.26,8.85" transform="translate(-23.43 10.29)" style="fill:#e8505b"/><path d="M618.47,240.38a3.28,3.28,0,0,1,.43-.54l1.29-1.47c1.15-1.25,2.82-3.05,4.92-5.25,4.19-4.4,10.06-10.42,16.57-17s12.46-12.54,16.78-16.81l5.14-5L665,192.9a3.94,3.94,0,0,1,.52-.44,3.11,3.11,0,0,1-.44.52l-1.35,1.42-5,5.16c-4.3,4.36-10.17,10.33-16.67,16.91l-16.67,16.9-5,5.14-1.37,1.4A3.44,3.44,0,0,1,618.47,240.38Z" transform="translate(-23.43 10.29)" style="fill:#263238"/><g style="opacity:0.30000000000000004"><path d="M648,210.78A24.5,24.5,0,0,1,674.21,180c1.39,7.56-1,15.32-4.94,21.89-4.71,7.75-14.07,11-21.26,8.85" transform="translate(-23.43 10.29)"/></g><path d="M634.35,213.75a15,15,0,0,1-3.13-24.6c4,2.5,6.56,6.77,7.89,11.3,1.58,5.33-.8,10.94-4.76,13.3" transform="translate(-23.43 10.29)" style="fill:#e8505b"/><g style="opacity:0.30000000000000004"><path d="M634.35,213.75a15,15,0,0,1-3.13-24.6c4,2.5,6.56,6.77,7.89,11.3,1.58,5.33-.8,10.94-4.76,13.3" transform="translate(-23.43 10.29)"/></g><path d="M635.91,222.27a3.69,3.69,0,0,1-.3-.91c-.17-.6-.36-1.47-.57-2.55-.42-2.17-.87-5.18-1.26-8.52s-.68-6.37-.85-8.57a24.2,24.2,0,0,1-.15-3.56,23.43,23.43,0,0,1,.52,3.53l1,8.54c.4,3.33.79,6.34,1.11,8.51S636,222.25,635.91,222.27Z" transform="translate(-23.43 10.29)" style="fill:#263238"/><path d="M447.1,329.66A23.66,23.66,0,0,1,486,322.57c-11.34,8.79-24.57,14.79-38.92,7.09" transform="translate(-23.43 10.29)" style="fill:#e8505b"/><g style="opacity:0.30000000000000004"><path d="M447.1,329.66A23.66,23.66,0,0,1,486,322.57c-11.34,8.79-24.57,14.79-38.92,7.09" transform="translate(-23.43 10.29)"/></g><path d="M440.69,333.17a4.61,4.61,0,0,1,.9-.7c.6-.43,1.49-1,2.62-1.66a50.09,50.09,0,0,1,19.36-6.39c1.3-.14,2.36-.21,3.09-.22a4.19,4.19,0,0,1,1.14,0c0,.08-1.61.19-4.19.56a57.66,57.66,0,0,0-19.22,6.34C442.1,332.36,440.74,333.24,440.69,333.17Z" transform="translate(-23.43 10.29)" style="fill:#263238"/><path d="M183.49,199.35a18.28,18.28,0,0,1,26,16.05c-11.05-.82-21.75-4.21-26-16.05" transform="translate(-23.43 10.29)" style="fill:#e8505b"/><g style="opacity:0.30000000000000004"><path d="M183.49,199.35a18.28,18.28,0,0,1,26,16.05c-11.05-.82-21.75-4.21-26-16.05" transform="translate(-23.43 10.29)"/></g><path d="M178,198.06a2.71,2.71,0,0,1,.88,0,23.1,23.1,0,0,1,2.37.38,37.67,37.67,0,0,1,14.42,6.35,22.72,22.72,0,0,1,1.88,1.48c.42.38.65.6.63.63s-1.05-.7-2.72-1.81a45.84,45.84,0,0,0-14.29-6.29C179.22,198.35,178,198.14,178,198.06Z" transform="translate(-23.43 10.29)" style="fill:#263238"/><path d="M541.82,317.4a16.35,16.35,0,0,1,20.88-17.64c-3.77,9.17-9.63,17.32-20.88,17.64" transform="translate(-23.43 10.29)" style="fill:#e8505b"/><path d="M539.19,321.71a12.14,12.14,0,0,1,1.25-2.66,33.46,33.46,0,0,1,9.41-10.49,12.27,12.27,0,0,1,2.5-1.54,23.65,23.65,0,0,1-2.28,1.83,41.18,41.18,0,0,0-9.31,10.39A24,24,0,0,1,539.19,321.71Z" transform="translate(-23.43 10.29)" style="fill:#263238"/><path d="M620.51,265.46a16.34,16.34,0,0,1,17.19-21.25c-2,9.71-6.2,18.81-17.19,21.25" transform="translate(-23.43 10.29)" style="fill:#e8505b"/><g style="opacity:0.30000000000000004"><path d="M620.51,265.46a16.34,16.34,0,0,1,17.19-21.25c-2,9.71-6.2,18.81-17.19,21.25" transform="translate(-23.43 10.29)"/></g><path d="M618.74,270.18a11.64,11.64,0,0,1,.73-2.84,33.5,33.5,0,0,1,7.26-12.08,11.84,11.84,0,0,1,2.18-2,27.62,27.62,0,0,1-1.9,2.22,41.47,41.47,0,0,0-7.2,12A27.2,27.2,0,0,1,618.74,270.18Z" transform="translate(-23.43 10.29)" style="fill:#263238"/><path d="M27.34,193.94a16.34,16.34,0,0,1,25.55-9.69c-6.6,7.39-14.83,13.13-25.55,9.69" transform="translate(-23.43 10.29)" style="fill:#e8505b"/><path d="M23.43,197.13A11.91,11.91,0,0,1,25.49,195a33,33,0,0,1,5.82-4,33.48,33.48,0,0,1,6.54-2.73,11.54,11.54,0,0,1,2.87-.61,27.22,27.22,0,0,1-2.75,1,43.17,43.17,0,0,0-6.41,2.83,41.83,41.83,0,0,0-5.83,3.88A27,27,0,0,1,23.43,197.13Z" transform="translate(-23.43 10.29)" style="fill:#263238"/><path d="M484.43,63.44l8-14.48a38.62,38.62,0,1,1,9.34,10.19l0,0Z" transform="translate(-23.43 10.29)" style="fill:#fff"/><path d="M484.43,63.44,501.8,59l-.07.21,0,0-.61-.77.79.59a39.52,39.52,0,0,0,7.95,4.62,38.24,38.24,0,0,0,10.52,2.85,35.46,35.46,0,0,0,6,.23c1-.08,2.1-.12,3.16-.22l3.22-.53a38.54,38.54,0,0,0,23.65-15.57,38.15,38.15,0,0,0,6.28-14.78,38.91,38.91,0,0,0-.63-16.94,37.67,37.67,0,0,0-8.31-15.57l-1.57-1.69c-.52-.57-1.13-1-1.69-1.56a22.1,22.1,0,0,0-1.74-1.49l-1.84-1.35A16.64,16.64,0,0,0,545-4.18L543.1-5.34l-2-1a17.49,17.49,0,0,0-2-.89,38.93,38.93,0,0,0-17.09-2.47A37.59,37.59,0,0,0,506.3-4.9a38.76,38.76,0,0,0-17.94,22.41,41.24,41.24,0,0,0-1.58,12.43,38.31,38.31,0,0,0,5.8,19l0,.06,0,.07-8.15,14.42c.43-.77,2.88-5.28,7.93-14.54V49A38.44,38.44,0,0,1,486.42,30,41.72,41.72,0,0,1,488,17.39,39.24,39.24,0,0,1,506.06-5.32a38.23,38.23,0,0,1,15.83-4.84A39.33,39.33,0,0,1,539.2-7.67a17.4,17.4,0,0,1,2.08.9l2.06,1,2,1.17a17.18,17.18,0,0,1,1.93,1.25L549.1-2A23,23,0,0,1,550.86-.5c.57.53,1.19,1,1.72,1.58l1.59,1.72a38.14,38.14,0,0,1,8.42,15.78,39.45,39.45,0,0,1,.62,17.16,38.46,38.46,0,0,1-6.38,15,38.92,38.92,0,0,1-24,15.71l-3.25.52c-1.08.1-2.15.14-3.2.2a34.21,34.21,0,0,1-6.11-.25A38.38,38.38,0,0,1,509.71,64a39.44,39.44,0,0,1-8-4.7l.18-.19v0l.12.16-.19,0Z" transform="translate(-23.43 10.29)" style="fill:#263238"/><path d="M514.42,21.85l5-.05a4.26,4.26,0,0,1,4.34-4.32,4,4,0,0,1,4,2.55,4.46,4.46,0,0,1-.32,4.06c-.83,1.41-2.69,2.71-6.07,2.14l.11,11.31,5,0-.07-6.62a9.7,9.7,0,0,0,6.87-9.53c-.08-7.33-6.67-9-9.48-8.94C521.57,12.42,514.24,13,514.42,21.85Z" transform="translate(-23.43 10.29)" style="fill:#e8505b"/><rect x="521.47" y="39.84" width="5.03" height="4.7" transform="translate(-23.81 15.32) rotate(-0.55)" style="fill:#e8505b"/></g></svg>